<?xml version="1.0" encoding="UTF-8"?>
<svg width="109px" height="110px" viewBox="0 0 109 110" version="1.1" xmlns="http://www.w3.org/2000/svg" xmlns:xlink="http://www.w3.org/1999/xlink">
    <!-- Generator: Sketch 61.2 (89653) - https://sketch.com -->
    <title>icon / reduce turnover@2x</title>
    <desc>Created with Sketch.</desc>
    <g id="Done" stroke="none" stroke-width="1" fill="none" fill-rule="evenodd">
        <g id="Monetee-employee" transform="translate(-380.000000, -1012.000000)">
            <g id="Group-7" transform="translate(93.000000, 871.000000)">
                <g id="icon-/-piggy-copy" transform="translate(278.000000, 142.000000)">
                    <path d="M47.2333449,65.8366887 L77.1084295,95.6724746 L77.1084295,105.634713 L17.3582603,105.634713 L17.3582603,95.6724746 L47.2333449,65.8366887 Z M17,26 L77.1084295,26.0358351 L77.1084295,36.0009027 L47.2333449,65.8366887 L17,36 L17,26 Z" id="Combined-Shape" fill="#515C81" fill-rule="evenodd" opacity="0.300000012"></path>
                    <polygon id="Stroke-12" fill="#515C81" fill-rule="evenodd" points="41.4929624 66 50 58 33 58"></polygon>
                    <polygon id="Stroke-9" fill="#515C81" fill-rule="evenodd" points="20 88 62 88 71.1075834 96.6730405 71.1075834 97.1908166 11.3602346 97.1908166 11.3602346 96.6730405"></polygon>
                    <polygon id="Stroke-1" stroke="#0B063E" stroke-width="3" points="41.2333449 66.8366887 11.3582603 96.6724746 11.3582603 106.634713 71.1084295 106.634713 71.1084295 96.6724746"></polygon>
                    <polygon id="Stroke-3" stroke="#0B063E" stroke-width="3" points="41.2333449 66.8366887 71.1084295 37.0009027 71.1084295 27.0358351 11 27 11 37"></polygon>
                    <line x1="11.3588244" y1="37.0011857" x2="71.1089937" y2="37.0011857" id="Stroke-5" stroke="#0B063E" stroke-width="3"></line>
                    <line x1="71.1078654" y1="97.1916654" x2="11.3576962" y2="97.1916654" id="Stroke-7" stroke="#0B063E" stroke-width="3"></line>
                    <path d="M58.6498812,19.8788708 C62.8286933,8.65757895 73.6047418,0.671406699 86.2396024,0.671406699 C102.502099,0.671406699 115.685324,13.9082967 115.685324,30.230689 C115.685324,46.5559043 102.502099,59.7927943 86.2396024,59.7927943 C79.0180752,59.7927943 72.4039661,57.1815502 67.2802812,52.8511196" id="Stroke-13" stroke="#0B063E" stroke-width="3"></path>
                    <path d="M65.4467782,21.5164737 C65.9923297,20.2037943 66.6588024,18.9560431 67.4321358,17.781689" id="Stroke-15" stroke="#0B063E" stroke-width="3"></path>
                    <path d="M72.9081794,12.0027943 C76.6398642,9.24475598 81.251743,7.61872727 86.2404461,7.61872727 C98.6812703,7.61872727 108.765537,17.7418852 108.765537,30.230689 C108.765537,42.7223158 98.6812703,52.8482967 86.2404461,52.8482967 C83.8979491,52.8482967 81.6370036,52.4869569 79.5138521,51.8207368" id="Stroke-17" stroke="#0B063E" stroke-width="3" stroke-dasharray="7"></path>
                    <path d="M75.8302545,50.2918182 C74.5760485,49.63689 73.3921455,48.8633971 72.2926061,47.9911005" id="Stroke-19" stroke="#0B063E" stroke-width="3"></path>
                    <path d="M84.721057,18.6189809 L84.721057,16.8574498 L87.7581479,16.8574498 L87.7581479,18.6189809 C90.3874812,19.1609904 91.7372994,21.1907033 91.7372994,24.4088852 L91.7372994,25.1513254 L88.2305842,25.1513254 L88.2305842,24.171756 C88.2305842,22.4779761 87.552863,21.8371627 86.3745842,21.8371627 C85.1934933,21.8371627 84.5185842,22.4779761 84.5185842,24.171756 C84.5185842,29.0470191 91.7710448,29.2841483 91.7710448,36.056445 C91.7710448,39.2718038 90.3874812,41.3382153 87.7581479,41.8774019 L87.7581479,43.6078804 L84.721057,43.6078804 L84.721057,41.8774019 C82.0579782,41.3382153 80.70816,39.2718038 80.70816,36.056445 L80.70816,34.4304163 L84.2148752,34.4304163 L84.2148752,36.2935742 C84.2148752,37.9845311 84.9572752,38.5942919 86.1383661,38.5942919 C87.3166448,38.5942919 88.0590448,37.9845311 88.0590448,36.2935742 C88.0590448,31.415488 80.8093964,31.1783589 80.8093964,24.4088852 C80.8093964,21.2274019 82.1254691,19.194866 84.721057,18.6189809" id="Fill-21" fill="#515C81" fill-rule="evenodd"></path>
                </g>
            </g>
        </g>
    </g>
</svg>