<?xml version="1.0" encoding="UTF-8"?>
<svg width="86px" height="94px" viewBox="0 0 86 94" version="1.1" xmlns="http://www.w3.org/2000/svg" xmlns:xlink="http://www.w3.org/1999/xlink">
    <!-- Generator: Sketch 61.2 (89653) - https://sketch.com -->
    <title>icon / open positions@2x</title>
    <desc>Created with Sketch.</desc>
    <g id="Done" stroke="none" stroke-width="1" fill="none" fill-rule="evenodd">
        <g id="Monetee-employee" transform="translate(-808.000000, -1024.000000)">
            <g id="Group-7" transform="translate(93.000000, 871.000000)">
                <g id="icon-/-piggy-copy-3" transform="translate(701.000000, 148.000000)">
                    <polygon id="Path-3" fill="#515C81" fill-rule="evenodd" points="49.0901639 28.3486239 65.7622951 28.3486239 69.4672131 18.8990826 69.4672131 15.1192661 67.6147541 13.2293578 64.8360656 13.2293578 61.1311475 17.0091743 59.2786885 15.1192661 56.5 14.1743119 54.647541 15.1192661 53.7213115 17.0091743 49.0901639 14.1743119 47.2377049 13.2293578 45.3852459 14.1743119 44.4590164 17.0091743 45.3852459 19.8440367 46.3114754 23.6238532"></polygon>
                    <path d="M35.9503833,73.4456833 L35.9503833,72.7614679 L37.2217478,72.7614679 L37.2217478,73.4456833 C38.3223057,73.6573471 38.8875522,74.4449331 38.8875522,75.695226 L38.8875522,75.9856484 L37.4189678,75.9856484 L37.4189678,75.603341 C37.4189678,74.9453784 37.137225,74.697617 36.6424141,74.697617 C36.1476033,74.697617 35.8658605,74.9453784 35.8658605,75.603341 C35.8658605,77.5001108 38.9016393,77.590355 38.9016393,80.2222052 C38.9016393,81.4724981 38.3223057,82.2748514 37.2217478,82.4848743 L37.2217478,83.1559633 L35.9503833,83.1559633 L35.9503833,82.4848743 C34.8357383,82.2748514 34.2704918,81.4724981 34.2704918,80.2222052 L34.2704918,79.5904955 L35.7390762,79.5904955 L35.7390762,80.315731 C35.7390762,80.9720527 36.0489933,81.2083286 36.5438042,81.2083286 C37.038615,81.2083286 37.3485321,80.9720527 37.3485321,80.315731 C37.3485321,78.4189612 34.3127532,78.3270762 34.3127532,75.695226 C34.3127532,74.4597004 34.8639126,73.6704735 35.9503833,73.4456833" id="Fill-1" fill="#515C81" fill-rule="evenodd"></path>
                    <path d="M55.5646139,38.2838432 L55.5646139,36.853211 L58.3616157,36.853211 L58.3616157,38.2838432 C60.782843,38.7264129 62.0263853,40.3731838 62.0263853,42.9874326 L62.0263853,43.5946793 L58.7954996,43.5946793 L58.7954996,42.7953093 C58.7954996,41.4195695 58.1756654,40.9015228 57.0870816,40.9015228 C55.9984978,40.9015228 55.3786636,41.4195695 55.3786636,42.7953093 C55.3786636,46.7612825 62.057377,46.949975 62.057377,52.4529344 C62.057377,55.0671832 60.782843,56.744831 58.3616157,57.1839699 L58.3616157,58.587156 L55.5646139,58.587156 L55.5646139,57.1839699 C53.1123948,56.744831 51.8688525,55.0671832 51.8688525,52.4529344 L51.8688525,51.1320869 L55.0997382,51.1320869 L55.0997382,52.6484884 C55.0997382,54.0207975 55.7815558,54.5148288 56.8701396,54.5148288 C57.9587234,54.5148288 58.640541,54.0207975 58.640541,52.6484884 C58.640541,48.6825152 51.9618276,48.490392 51.9618276,42.9874326 C51.9618276,40.4040607 53.1743782,38.7538591 55.5646139,38.2838432" id="Fill-1-Copy" fill="#515C81" fill-rule="evenodd"></path>
                    <path d="M45.3852459,77.959531 C45.3852459,82.9173429 41.2387533,86.9357798 36.1229508,86.9357798 C31.0071483,86.9357798 26.8606557,82.9173429 26.8606557,77.959531 C26.8606557,73.0017192 31.0071483,68.9816514 36.1229508,68.9816514 C41.2387533,68.9816514 45.3852459,73.0017192 45.3852459,77.959531 Z" id="Stroke-3" stroke="#0B063E" stroke-width="3"></path>
                    <path d="M23.9093997,63.0527204 L23.9093997,62.3669725 L25.1807642,62.3669725 L25.1807642,63.0527204 C26.283083,63.2627102 26.8465686,64.050172 26.8465686,65.3019081 L26.8465686,65.5906441 L25.3779842,65.5906441 L25.3779842,65.208397 C25.3779842,64.5521789 25.0962414,64.302816 24.6014305,64.302816 C24.1066197,64.302816 23.8248769,64.5521789 23.8248769,65.208397 C23.8248769,67.1048675 26.8606557,67.1950975 26.8606557,69.8265322 C26.8606557,71.0782683 26.283083,71.8788545 25.1807642,72.0888443 L25.1807642,72.7614679 L23.9093997,72.7614679 L23.9093997,72.0888443 C22.7947547,71.8788545 22.2295082,71.0782683 22.2295082,69.8265322 L22.2295082,69.1949223 L23.6980926,69.1949223 L23.6980926,69.9200433 C23.6980926,70.5762615 24.0080097,70.8125 24.5028205,70.8125 C24.9976314,70.8125 25.3075485,70.5762615 25.3075485,69.9200433 C25.3075485,68.0235729 22.2717696,67.9333429 22.2717696,65.3019081 C22.2717696,64.0649369 22.822929,63.2758346 23.9093997,63.0527204" id="Fill-5" fill="#515C81" fill-rule="evenodd"></path>
                    <path d="M22.7030027,76.5412844 C18.703299,75.540796 15.7459016,71.9628905 15.7459016,67.7041892 C15.7459016,62.6686185 19.8815584,58.587156 24.983992,58.587156 C28.6798995,58.587156 31.867242,60.7272735 33.3442623,63.8198427" id="Stroke-7" stroke="#0B063E" stroke-width="3"></path>
                    <path d="M88.9180328,66.0191547 C74.1784164,69.5712669 67.2594496,85.8143066 52.7696573,89.7706422 C50.4749162,86.0484193 47.4919183,81.2044767 43.5327869,74.7773262 C58.2740577,71.2285825 65.194679,54.987227 79.6811624,51.0275229 C81.974249,54.7497458 84.9572469,59.5920042 88.9180328,66.0191547 Z" id="Stroke-9" stroke="#0B063E" stroke-width="3"></path>
                    <path d="M67.6030561,65.8355147 C68.5573641,67.217032 68.911009,70.672443 68.0562191,73.0585531 C67.1854353,75.4171623 65.7779643,76.3133691 64.8485359,74.9674412 C63.8942279,73.5810708 63.538806,70.1256598 64.3953729,67.7444028 C65.2750423,65.3938821 66.6647421,64.4750275 67.6030561,65.8355147 Z" id="Stroke-11" stroke="#0B063E" stroke-width="3"></path>
                    <path d="M90.723464,69.9266055 C93.2257449,70.1134632 95.7146982,70.5797806 98.1803279,71.4743823 C97.9520905,75.7803768 97.6555486,81.3844534 97.2607146,88.8256881 C86.9750404,84.7429306 76.2812045,88.4089789 65.7622951,88.7496221" id="Stroke-13" stroke="#0B063E" stroke-width="3"></path>
                    <path d="M79.6524498,75.8703121 C79.5671649,77.5109222 77.8204644,80.5445031 75.7851074,82.0596644 C73.7513904,83.5422416 72.1654191,83.5389831 72.249064,81.9407324 C72.3376291,80.2968639 74.0826894,77.2616537 76.1180465,75.7497509 C78.1534036,74.2769489 79.7377347,74.2541401 79.6524498,75.8703121 Z" id="Stroke-15" stroke="#0B063E" stroke-width="3"></path>
                    <path d="M34.2704918,57.6422018 C37.8314974,42.712459 49.2581845,28.9310294 49.2581845,28.9310294 C49.2581845,28.9310294 42.6579021,17.6768917 44.9336331,14.2302807 C47.2093641,10.7870126 52.8639097,17.3325649 52.8639097,17.3325649 C52.8639097,17.3325649 54.606318,14.5746075 56.882049,14.2302807 L57.1834922,14.2302807 C59.4592232,14.5746075 61.2016315,17.3325649 61.2016315,17.3325649 C61.2016315,17.3325649 66.8561771,10.7870126 69.1319081,14.2302807 C71.4076391,17.6768917 64.8073567,28.9310294 64.8073567,28.9310294 C64.8073567,28.9310294 71.2353858,36.683397 75.9508197,46.8577526" id="Stroke-17" stroke="#0B063E" stroke-width="3"></path>
                    <path d="M47.2377049,28.763705 L66.7908249,28.763705 C66.7908249,28.763705 71.0022151,24.4517219 75.0245902,31.1834862" id="Stroke-19" stroke="#0B063E" stroke-width="3"></path>
                    <path d="M28.7131148,53.8623853 L28.7131148,13.6146789 C28.7131148,9.74868565 31.8471215,6.6146789 35.7131148,6.6146789 L78.2131148,6.6146789 C82.079108,6.6146789 85.2131148,9.74868565 85.2131148,13.6146789 L85.2131148,51.9724771 L85.2131148,51.9724771" id="Rectangle-Copy-2" stroke="#0B063E" stroke-width="3"></path>
                    <path d="M28.7131148,97.3302752 L28.7131148,95.8256881 C28.7131148,91.9596948 31.8471215,88.8256881 35.7131148,88.8256881 L80.4883441,88.8256881 C83.0977629,88.8256881 85.2131148,90.9410399 85.2131148,93.5504587 L85.2131148,93.5504587 L85.2131148,93.5504587" id="Rectangle-Copy-3" stroke="#0B063E" stroke-width="3" transform="translate(56.963115, 93.077982) scale(1, -1) translate(-56.963115, -93.077982) "></path>
                    <path d="M84.2868852,51.0275229 L92.6229508,66.146789 L89.8442623,67.0917431 L83.3606557,70.8715596 L78.7295082,74.6513761 L72.2459016,80.3211009 L67.6147541,84.1009174 L62.057377,87.8807339 L57.4262295,89.7706422 L50.7278758,79.5185819 C49.8165479,83.7606437 46.1118868,86.9357798 41.6803279,86.9357798 C36.5649035,86.9357798 32.4180328,82.7050761 32.4180328,77.4862385 C32.4180328,77.0969426 32.4411073,76.7131449 32.4859371,76.3361914 C31.8669453,76.4711315 31.2242897,76.5412844 30.5655738,76.5412844 C25.4501494,76.5412844 21.3032787,72.3105807 21.3032787,67.0917431 C21.3032787,61.8729056 25.4501494,57.6422018 30.5655738,57.6422018 C35.6809981,57.6422018 39.8278689,61.8729056 39.8278689,67.0917431 C39.8278689,67.4807806 39.804825,67.8643271 39.7600538,68.2410394 C40.3789563,68.1068502 41.0216119,68.0366972 41.6803279,68.0366972 C45.465048,68.0366972 48.7195827,70.3525814 50.1567095,73.671105 L53.7213115,72.7614679 L57.4262295,69.9266055 L62.9836066,66.146789 L67.6147541,62.3669725 L71.3196721,58.587156 L75.9508197,54.8073394 L81.5081967,51.9724771 L84.2868852,51.0275229 Z" id="Combined-Shape" fill="#515C81" fill-rule="evenodd" opacity="0.300000012"></path>
                </g>
            </g>
        </g>
    </g>
</svg>