<?xml version="1.0" encoding="UTF-8"?>
<svg width="68px" height="105px" viewBox="0 0 68 105" version="1.1" xmlns="http://www.w3.org/2000/svg" xmlns:xlink="http://www.w3.org/1999/xlink">
    <!-- Generator: Sketch 61.2 (89653) - https://sketch.com -->
    <title>icon / piggy@2x</title>
    <desc>Created with Sketch.</desc>
    <defs>
        <polygon id="path-1" points="0.445177778 0.156596566 26.2097778 0.156596566 26.2097778 22.5669793 0.445177778 22.5669793"></polygon>
    </defs>
    <g id="Done" stroke="none" stroke-width="1" fill="none" fill-rule="evenodd">
        <g id="Monetee-employee" transform="translate(-1249.000000, -1023.000000)">
            <g id="Group-7" transform="translate(93.000000, 871.000000)">
                <g id="icon-/-piggy-copy-2" transform="translate(1129.000000, 148.000000)">
                    <polygon id="Stroke-11-Copy" fill="#515C81" opacity="0.300000012" points="82.8362868 107 49.1637132 107 44 69 88 69"></polygon>
                    <polygon id="Stroke-13-Copy" fill="#515C81" opacity="0.300000012" points="40 65 92 65 92 60 40 60"></polygon>
                    <g id="Group-19" stroke-width="1" transform="translate(27.000000, 4.000000)">
                        <g id="Group-10">
                            <path d="M27.8059778,22.3523684 C27.3587556,15.0358947 22.4955333,11.5465789 16.2139778,8.69168421 C17.1493111,8.54984211 17.4380889,8.47505263 17.7319778,8.46989474 C24.0135333,8.34094737 32.0456444,12.8051053 32.0252,21.5761053 C32.0252,21.7669474 33.7885333,22.1486316 33.7885333,22.1486316 L33.2135333,10.4144211 C33.2135333,10.4144211 33.1956444,10.4402105 33.1905333,10.4531053 C32.8608667,9.94763158 32.6129778,9.61494737 32.4085333,9.25131579 C27.7932,1.02447368 17.9747556,-1.86910526 9.68453333,2.50736842 C8.05664444,3.36357895 7.31553333,4.48026316 7.46886667,6.39126316 C8.01064444,13.2951053 11.2459778,18.3962632 17.4764222,21.2924211 C20.6964222,22.7882105 24.1719778,23.4200526 27.8059778,22.3523684" id="Fill-1" fill="#0B063E"></path>
                            <path d="M20.3588333,45.2456842 C19.9090556,37.9266316 15.0483889,34.4398947 8.76683333,31.5824211 C9.69961111,31.4431579 9.99094444,31.3683684 10.2848333,31.3606316 C16.5663889,31.2342632 23.9136111,35.6958421 23.8931667,44.4694211 C23.8931667,44.6576842 23.8931667,44.8511053 23.8931667,45.0419474 C24.3889444,45.011 24.8949444,45.0161579 25.4137222,45.0548421 C25.5491667,41.1528947 25.3012778,37.1555263 25.7638333,33.3077368 C25.7587222,33.3206316 25.7485,33.3309474 25.7408333,33.3464211 C25.4137222,32.8409474 25.1632778,32.5056842 24.9613889,32.1446316 C20.3460556,23.9152105 10.5250556,21.0242105 2.23483333,25.3981053 C0.6095,26.2568947 -0.131611111,27.371 0.0191666667,29.282 C0.560944444,36.1858421 3.79883333,41.287 10.0292778,44.1831579 C13.2467222,45.6789474 16.7248333,46.3133684 20.3588333,45.2456842" id="Fill-3" fill="#0B063E"></path>
                            <g id="Group-7" transform="translate(40.888889, 23.210526)">
                                <mask id="mask-2" fill="white">
                                    <use xlink:href="#path-1"></use>
                                </mask>
                                <g id="Clip-6"></g>
                                <path d="M5.85273333,22.0351579 C6.30251111,14.7161053 11.1631778,11.2293684 17.4447333,8.37189474 C16.5094,8.23263158 16.2206222,8.15784211 15.9267333,8.15010526 C9.64517778,8.02373684 2.29795556,12.4853158 2.3184,21.2588947 L2.3184,21.8314211 C1.82006667,21.8004737 1.31662222,21.8056316 0.797844444,21.8443158 C0.6624,17.9423684 0.910288889,13.945 0.445177778,10.0972105 C0.452844444,10.1101053 0.463066667,10.1204211 0.468177778,10.1358947 C0.797844444,9.63042105 1.04573333,9.29515789 1.25017778,8.93410526 C5.86551111,0.704684211 15.6839556,-2.18631579 23.9767333,2.18757895 C25.6020667,3.04636842 26.3431778,4.16047368 26.1924,6.07147368 C25.6480667,12.9753158 22.4127333,18.0764737 16.1822889,20.9726316 C12.9648444,22.4684211 9.48673333,23.1028421 5.85273333,22.0351579" id="Fill-5" fill="#0B063E" mask="url(#mask-2)"></path>
                            </g>
                            <path d="M38.6182778,22.3523684 C39.0680556,15.0358947 43.9312778,11.5465789 50.2102778,8.69168421 C49.2775,8.54984211 48.9861667,8.47505263 48.6922778,8.46989474 C42.4107222,8.34094737 34.5472778,12.8051053 34.5651667,21.5761053 C34.5651667,21.7669474 33.5633889,22.1641053 33.5633889,22.1641053 L33.2132778,10.4144211 L33.2362778,10.4531053 C33.5633889,9.94763158 33.8138333,9.61494737 34.0157222,9.25131579 C38.6310556,1.02447368 48.4520556,-1.86910526 56.7422778,2.50736842 C58.3701667,3.36357895 59.1087222,4.48026316 58.9579444,6.39126316 C58.4161667,13.2951053 55.1782778,18.3962632 48.9478333,21.2924211 C45.7303889,22.7882105 42.2522778,23.4200526 38.6182778,22.3523684" id="Fill-8" fill="#0B063E"></path>
                        </g>
                        <polygon id="Stroke-11" stroke="#0B063E" stroke-width="3" points="49.8362868 103 16.1637132 103 11 65 55 65"></polygon>
                        <polygon id="Stroke-13" stroke="#0B063E" stroke-width="3" points="7 61 59 61 59 56 7 56"></polygon>
                        <line x1="33.5" y1="56" x2="33.5" y2="12" id="Stroke-14" stroke="#0B063E" stroke-width="3"></line>
                        <line x1="24.5" y1="56" x2="24.5" y2="33" id="Stroke-15" stroke="#0B063E" stroke-width="3"></line>
                        <line x1="42.5" y1="56" x2="42.5" y2="33" id="Stroke-16" stroke="#0B063E" stroke-width="3"></line>
                        <path d="M31.9911944,71.7794131 L31.9911944,70 L35.0088056,70 L35.0088056,71.7794131 C37.6265523,72.3261461 38.9652292,74.3738633 38.9652292,77.6238868 L38.9652292,78.3731133 L35.4782118,78.3731133 L35.4782118,77.3834255 C35.4782118,75.6748852 34.8076315,75.0243742 33.6353579,75.0243742 C32.4606006,75.0243742 31.7900203,75.6748852 31.7900203,77.3834255 C31.7900203,82.3040217 39,82.544483 39,89.3786444 C39,92.6236055 37.6265523,94.7118215 35.0088056,95.2534921 L35.0088056,97 L31.9911944,97 L31.9911944,95.2534921 C29.3436442,94.7118215 28,92.6236055 28,89.3786444 L28,87.7384457 L31.489501,87.7384457 L31.489501,89.6191057 C31.489501,91.327646 32.2246557,91.9401894 33.399413,91.9401894 C34.5741702,91.9401894 35.3118085,91.327646 35.3118085,89.6191057 C35.3118085,84.6959783 28.1018289,84.455517 28.1018289,77.6238868 C28.1018289,74.4118309 29.4082186,72.3590513 31.9911944,71.7794131" id="Fill-17" fill="#515C81"></path>
                    </g>
                </g>
            </g>
        </g>
    </g>
</svg>