<?xml version="1.0" encoding="UTF-8"?>
<svg width="117px" height="104px" viewBox="0 0 117 104" version="1.1" xmlns="http://www.w3.org/2000/svg" xmlns:xlink="http://www.w3.org/1999/xlink">
    <!-- Generator: Sketch 61.2 (89653) - https://sketch.com -->
    <title>icon / reduce turnover@2x</title>
    <desc>Created with Sketch.</desc>
    <g id="Done" stroke="none" stroke-width="1" fill="none" fill-rule="evenodd">
        <g id="Monetee-employer-2-Copy" transform="translate(-359.000000, -1049.000000)">
            <g id="Group-7" transform="translate(88.000000, 898.000000)">
                <g id="icon-/-reduce-turnover" transform="translate(272.000000, 152.000000)">
                    <path d="M82.4782609,20.1264762 L87.5,23.0198284 L92.4881423,20.2189578 C93.1462451,19.826383 94,20.2774666 94,21.0173192 L94,25.931 L94.9086739,25.3450546 C95.818948,24.7237478 97,25.4398303 97,26.6171541 L97,31 L95.38,32.529 L97.2103934,31.4291534 C98.4243708,30.6539079 100,31.5470387 100,33.0096153 L100,34.7359353 C100,41.4067161 94.787662,46.833322 88.2993737,46.9962332 L87.9990226,47 C81.3719964,47 76,41.5093435 76,34.7359353 L76,32.8657553 C76,31.4331495 77.5130732,30.5380207 78.7290055,31.2493284 L80.272,32.201 L79,31 L79,26.5013172 C79,25.3680776 80.0982014,24.6526092 81.0004736,25.1728028 L81,20.9437114 C81,20.2189578 81.8201581,19.7659868 82.4782609,20.1264762 Z M73.4026908,58 C72.6269453,58 72,57.3513514 72,56.5487513 L72,53.4512487 C72,52.6507013 72.6269453,52 73.4026908,52 L102.597309,52 C103.371071,52 104,52.6507013 104,53.4512487 L104,56.5487513 C104,57.3513514 103.371071,58 102.597309,58 L101,58 L99.4251273,63 L76.5748727,63 L75,58 L73.4026908,58 Z" id="Combined-Shape" fill="#515C81" opacity="0.300000012"></path>
                    <path d="M116,63 L116,102 L69,102 L69,63 L116,63 Z M105,71 L81,71 L81,76 L105,76 L105,71 Z" id="Combined-Shape" fill="#00C4C7" opacity="0.300000012"></path>
                    <g id="Group-34" stroke-width="1" transform="translate(1.000000, 0.000000)">
                        <path d="M43,59.5 L43,59.5 C30.8504505,59.5 21,49.7321785 21,37.6825783 L21,22.3174217 C21,10.2678215 30.8504505,0.5 43,0.5 C55.1495495,0.5 65,10.2678215 65,22.3174217 L65,37.6825783 C65,49.7321785 55.1495495,59.5 43,59.5 Z" id="Stroke-3" stroke="#0B063E" stroke-width="3"></path>
                        <polyline id="Stroke-5" stroke="#0B063E" stroke-width="3" points="51 58.5 51 68.5 35 68.5 35 58.5"></polyline>
                        <path d="M63,68.5 L19.7800313,68.5 C8.8554375,68.5 0,77.2742508 0,88.0986877 L0,101.5 L63,101.5 L63,68.5 Z" id="Stroke-7" stroke="#0B063E" stroke-width="3"></path>
                        <polygon id="Stroke-9" stroke="#0B063E" stroke-width="3" points="63 101.5 110 101.5 110 62.5 63 62.5"></polygon>
                        <path d="M20.7223079,40.5 L21,40.5 L21,28.5 L20.7223079,28.5 C17.5621722,28.5 15,31.1860747 15,34.5009704 C15,37.8139253 17.5621722,40.5 20.7223079,40.5 Z" id="Stroke-11" stroke="#0B063E" stroke-width="3"></path>
                        <path d="M65,40.5 L65.2776921,40.5 C68.4378278,40.5 71,37.8139253 71,34.5009704 C71,31.1860747 68.4378278,28.5 65.2776921,28.5 L65,28.5 L65,40.5 Z" id="Stroke-12" stroke="#0B063E" stroke-width="3"></path>
                        <path d="M65,29.144895 C58.4931532,24.8104302 51.1261261,15.5 51.1261261,15.5 C51.1261261,15.5 36.6913514,32.7781396 21,36.5" id="Stroke-13" stroke="#0B063E" stroke-width="3"></path>
                        <polyline id="Stroke-14" stroke="#0B063E" stroke-width="3" points="30 67.5 35.6572075 77.5 37.8 74.8381861 43.7024906 67.5 51.3553208 77.5 56 67.5"></polyline>
                        <polyline id="Stroke-15" stroke="#0B063E" stroke-width="3" points="37 75.5 42.9006085 81.5 49 75.6205312"></polyline>
                        <path d="M36.0956233,101.5 C36.0956233,101.5 34.895309,87.4444444 41,79.5" id="Stroke-16" stroke="#0B063E" stroke-width="3"></path>
                        <path d="M48.9040295,101.5 C48.9040295,101.5 50.106321,87.4444444 44,79.5" id="Stroke-17" stroke="#0B063E" stroke-width="3"></path>
                        <line x1="15" y1="83.5" x2="15" y2="100.5" id="Stroke-18" stroke="#0B063E" stroke-width="3"></line>
                        <polygon id="Fill-19" fill="#0B063E" points="31 42.5 35 42.5 35 38.5 31 38.5"></polygon>
                        <polygon id="Fill-20" fill="#0B063E" points="51 42.5 55 42.5 55 38.5 51 38.5"></polygon>
                        <polygon id="Fill-21" fill="#0B063E" points="21 95.5 31 95.5 31 91.5 21 91.5"></polygon>
                        <path d="M37,50.9721517 C37,50.9721517 42.5882353,48.8541517 49,50.9621517" id="Stroke-22" stroke="#0B063E" stroke-width="3"></path>
                        <polyline id="Stroke-23" stroke="#0B063E" stroke-width="3" stroke-linejoin="round" points="47 42.5 41 42.5 42.9155888 32.5"></polyline>
                        <polygon id="Stroke-24" stroke="#0B063E" stroke-width="3" points="75 75.5 99 75.5 99 71.5 75 71.5"></polygon>
                        <line x1="110" y1="54.5" x2="107" y2="62.5" id="Stroke-25" stroke="#0B063E" stroke-width="4"></line>
                        <line x1="102" y1="57.5" x2="100" y2="62.5" id="Stroke-26" stroke="#0B063E" stroke-width="4"></line>
                        <path d="M82.9990226,46.5 L82.9990226,46.5 C76.3719964,46.5 71,41.0093435 71,34.2359353 L71,32.3657553 C71,30.9331495 72.5130732,30.0380207 73.7290055,30.7493284 L82.9990226,36.4657652 L92.2103934,30.9291534 C93.4243708,30.1539079 95,31.0470387 95,32.5096153 L95,34.2359353 C95,41.0093435 89.6260487,46.5 82.9990226,46.5 Z" id="Stroke-27" stroke="#0B063E" stroke-width="3"></path>
                        <path d="M74,30.5 L74,26.0013172 C74,24.8492669 75.1349621,24.1289722 76.0452363,24.699732 L82.9990398,29.3016149 L89.9086739,24.8450546 C90.818948,24.2237478 92,24.9398303 92,26.1171541 L92,30.5" id="Stroke-28" stroke="#0B063E" stroke-width="3"></path>
                        <path d="M76,25.5 L76,20.4437114 C76,19.7189578 76.8201581,19.2659868 77.4782609,19.6264762 L82.5,22.5198284 L87.4881423,19.7189578 C88.1462451,19.326383 89,19.7774666 89,20.5173192 L89,25.5" id="Stroke-29" stroke="#0B063E" stroke-width="3"></path>
                        <line x1="83" y1="46.5" x2="83" y2="52.5" id="Stroke-30" stroke="#0B063E" stroke-width="3"></line>
                        <path d="M97.5973092,57.5 L68.4026908,57.5 C67.6269453,57.5 67,56.8513514 67,56.0487513 L67,52.9512487 C67,52.1507013 67.6269453,51.5 68.4026908,51.5 L97.5973092,51.5 C98.3710707,51.5 99,52.1507013 99,52.9512487 L99,56.0487513 C99,56.8513514 98.3710707,57.5 97.5973092,57.5 Z" id="Stroke-31" stroke="#0B063E" stroke-width="3"></path>
                        <polygon id="Stroke-32" stroke="#0B063E" stroke-width="3" points="94.4251273 62.5 71.5748727 62.5 70 57.5 96 57.5"></polygon>
                    </g>
                </g>
            </g>
        </g>
    </g>
</svg>