<?xml version="1.0" encoding="UTF-8"?>
<svg width="126px" height="103px" viewBox="0 0 126 103" version="1.1" xmlns="http://www.w3.org/2000/svg" xmlns:xlink="http://www.w3.org/1999/xlink">
    <!-- Generator: Sketch 61.2 (89653) - https://sketch.com -->
    <title>icon / piggy@2x</title>
    <desc>Created with Sketch.</desc>
    <g id="Done" stroke="none" stroke-width="1" fill="none" fill-rule="evenodd">
        <g id="Monetee-employer-2-Copy" transform="translate(-1220.000000, -1058.000000)">
            <g id="Group-7" transform="translate(88.000000, 898.000000)">
                <g id="icon-/-piggy" transform="translate(1134.000000, 152.000000)">
                    <g id="Group-3" transform="translate(5.000000, 10.000000)" fill="#6A55D6" opacity="0.300000012">
                        <path d="M69.9271217,22.5273703 L70.0050069,22.626998 C76.9576857,16.6359207 75.9489774,7.24025619 75.9489774,7.24025619 C75.9489774,7.24025619 67.4860855,0.189675936 57.2356333,5.98724546 C51.7836692,2.21480184 45.1881225,0 38.075874,0 C30.9351308,0 24.3186881,2.23396102 18.8534266,6.03514342 C8.56308193,0.141777972 0.0507994173,7.24025619 0.0507994173,7.24025619 C0.0507994173,7.24025619 -0.956009271,16.6359207 5.99476996,22.626998 L6.35190209,22.1729253 C4.95186813,25.9242938 4.15022045,29.9726297 4.15022045,34.2163893 C4.15022045,41.2669696 6.26831798,47.8174951 9.89282925,53.2625356 L9.87953178,53.2491242 L9.87953178,63.0816181 C9.87953178,66.9038756 12.9493485,70 16.7372287,70 C19.2276555,70 21.2469718,67.9652945 21.2469718,65.4535253 L21.2469718,63.932286 L21.1462909,63.838406 C26.1328434,66.7448544 31.9039467,68.4327786 38.075874,68.4327786 C44.1376221,68.4327786 49.8175428,66.8080797 54.7414072,63.9993431 L54.7414072,65.4535253 C54.7414072,67.9652945 56.7607235,70 59.2511503,70 C63.0390305,70 66.1088472,66.9038756 66.1088472,63.0816181 L66.1088472,53.4790344 C69.8245411,47.9918437 72.0015275,41.3608496 72.0015275,34.2163893 C72.0015275,30.1029122 71.2454711,26.179111 69.9271217,22.5273703" id="Fill-1"></path>
                    </g>
                    <g id="Group-36" transform="translate(0.000000, 10.000000)">
                        <path d="M72,34 C72,52.7771992 56.7771992,68 38,68 C19.2228008,68 4,52.7771992 4,34 C4,15.2228008 19.2228008,0 38,0 C56.7771992,0 72,15.2228008 72,34 Z" id="Stroke-4" stroke="#0B063E" stroke-width="3"></path>
                        <path d="M57,5.44174729 C67.3549844,-0.645308577 75.9490332,6.56613242 75.9490332,6.56613242 C75.9490332,6.56613242 76.9566375,15.9898252 70.0115683,22" id="Stroke-6" stroke="#0B063E" stroke-width="3"></path>
                        <path d="M19,5.44174729 C8.64411492,-0.645308577 0.051216321,6.56613242 0.051216321,6.56613242 C0.051216321,6.56613242 -0.958373355,15.9898252 5.98729998,22" id="Stroke-8" stroke="#0B063E" stroke-width="3"></path>
                        <path d="M21,62.8401007 L21,64.3839643 C21,66.9311449 19.0477941,69 16.6378676,69 C12.9724265,69 10,65.8558847 10,61.9787258 L10,52" id="Stroke-10" stroke="#0B063E" stroke-width="3"></path>
                        <path d="M55,62.8401007 L55,64.3839643 C55,66.9311449 56.9522059,69 59.3639706,69 C63.0294118,69 66,65.8558847 66,61.9787258 L66,52" id="Stroke-12" stroke="#0B063E" stroke-width="3"></path>
                        <path d="M49,43.0009665 C49,47.4180259 44.0744822,51 38.0009696,51 C31.9235787,51 27,47.4180259 27,43.0009665 C27,38.5819741 31.9235787,35 38.0009696,35 C44.0744822,35 49,38.5819741 49,43.0009665 Z" id="Stroke-14" stroke="#0B063E" stroke-width="3"></path>
                        <line x1="38.5" y1="9.5" x2="38.5" y2="0.5" id="Stroke-16" stroke="#0B063E" stroke-width="3"></line>
                        <path d="M29,29.5008596 C29,30.3277937 28.3277937,31 27.4991404,31 C26.6722063,31 26,30.3277937 26,29.5008596 C26,28.6722063 26.6722063,28 27.4991404,28 C28.3277937,28 29,28.6722063 29,29.5008596" id="Fill-18" fill="#0B063E"></path>
                        <path d="M51,29.5008596 C51,30.3277937 50.3277937,31 49.4991404,31 C48.6722063,31 48,30.3277937 48,29.5008596 C48,28.6722063 48.6722063,28 49.4991404,28 C50.3277937,28 51,28.6722063 51,29.5008596" id="Fill-20" fill="#0B063E"></path>
                        <path d="M43,43.5008596 C43,44.3277937 42.3281787,45 41.5,45 C40.6718213,45 40,44.3277937 40,43.5008596 C40,42.6722063 40.6718213,42 41.5,42 C42.3281787,42 43,42.6722063 43,43.5008596" id="Fill-22" fill="#0B063E"></path>
                        <path d="M36,43.5008596 C36,44.3277937 35.3281787,45 34.5,45 C33.6718213,45 33,44.3277937 33,43.5008596 C33,42.6722063 33.6718213,42 34.5,42 C35.3281787,42 36,42.6722063 36,43.5008596" id="Fill-24" fill="#0B063E"></path>
                        <path d="M122,2 L122,22.719521 C122,33.3676647 113.493665,42 102.999056,42 L102.999056,42 C92.5063354,42 84,33.3676647 84,22.719521 L84,2" id="Stroke-26" stroke="#0B063E" stroke-width="3"></path>
                        <path d="M115.15528,2 L122,2 L122,13.4388561 C122,24.2420043 113.493665,33 103.000944,33 L103.000944,33 C92.5063354,33 84,24.2420043 84,13.4388561 L84,2 L89.6645963,2" id="Stroke-28" stroke="#0B063E" stroke-width="3"></path>
                        <path d="M72,84.3406582 L72,84.3406582 C72,92.4370633 78.4824056,99 86.479463,99 L88.520537,99 C96.5175944,99 103,92.4370633 103,84.3406582 L103,42" id="Stroke-30" stroke="#0B063E" stroke-width="3"></path>
                        <path d="M80,75.5 C80,79.6404406 76.6419672,83 72.4990164,83 C68.3580328,83 65,79.6404406 65,75.5 C65,71.3595594 68.3580328,68 72.4990164,68 C76.6419672,68 80,71.3595594 80,75.5 Z" id="Stroke-32" stroke="#0B063E" stroke-width="3"></path>
                        <path d="M76,75.5009267 C76,77.4339423 74.432089,79 72.5009267,79 C70.567911,79 69,77.4339423 69,75.5009267 C69,73.567911 70.567911,72 72.5009267,72 C74.432089,72 76,73.567911 76,75.5009267 Z" id="Stroke-34" stroke="#0B063E" stroke-width="3"></path>
                    </g>
                </g>
            </g>
        </g>
    </g>
</svg>