<svg xmlns="http://www.w3.org/2000/svg" width="1469" height="1497" viewBox="0 0 1469 1497"><g fill="#D4D2DD" fill-rule="evenodd" opacity=".391"><path d="M408.595 1085.042l.579.198c6.67 2.27 13.567 4.617 20.429 7.315 18.918 7.52 33.818 16.634 44.287 27.085 14.083 14.06 21.458 29.477 29.264 45.8l1.09 2.279c1.986 4.144 3.86 7.94 5.733 11.612 18.806 36.864 50.29 69.842 80.21 84.017 33.22 15.734 68.26 17.732 107.142 6.117 9.93-2.992 20.321-6.879 30.37-10.636 22.946-8.582 46.67-17.452 69.683-17.969a98.577 98.577 0 0 1 15.823.936c4.605.641 9.185 1.567 13.614 2.462 4.978 1.006 10.124 2.043 15.441 2.72 15.61 1.979 33.634-.076 50.754-5.786 31.95-10.658 56.324-33.93 78.552-56.855 9.813-10.12 19.046-24.636 28.823-40.005 14.443-22.703 29.378-46.178 48.478-59.547 32.296-22.6 64.992-48.823 85.404-87.352a306.796 306.796 0 0 0 4.736-9.271c9.752-20.021 23.84-38.648 38.755-58.369 14.197-18.768 28.876-38.176 39.767-59.183 13.826-26.667 24.692-56.426 31.427-86.054 5.422-24.181 11.146-56.086 7.242-88.433-1.825-14.97-5.692-29.8-11.492-44.079-22.406-55.014-72.24-99.303-112.285-134.891-16.754-14.888-30.362-27.898-42.32-42.999-16.76-21.18-30.43-46.742-43.02-80.448-3.888-10.4-7.532-21.155-11.054-31.556-1.052-3.1-2.101-6.197-3.157-9.288-14.783-43.298-33.22-86.768-67.732-111.459-29.187-20.887-67.817-28.236-114.81-21.851-38.949 5.217-76.722 17.988-115.21 31.733-55.894 20.007-98.497 36.557-138.134 53.659-41.461 17.811-84.09 38.433-115.021 68.46-5.582 5.41-10.887 11.213-16.016 16.822-6.155 6.737-12.521 13.702-19.57 20.235-3.867 3.601-8.122 7.22-12.644 10.755-16.715 13.08-35.869 24.292-54.388 35.134-23.478 13.745-47.755 27.96-67.787 46.305-37.797 34.612-60.324 85.254-60.261 135.468.045 36.349 11.366 72.494 21.224 99.922 8.979 25.007 19.107 48.767 30.104 70.618 1.1 2.185 2.208 4.354 3.312 6.52 6.046 11.84 11.757 23.025 15.653 35.561 1.75 5.628 2.977 11.023 3.755 16.496 2.952 21.203-1.443 43.186-5.693 64.445-4.576 22.887-9.308 46.551-4.588 68.755 6.738 31.492 32.078 59.05 69.525 75.613 6.257 2.767 12.698 5.112 19.281 7.379a888.14 888.14 0 0 0 4.725 1.61M965.85 240.41c16.096 11.517 29.785 27.707 41.854 49.497 11.407 20.596 19.707 43.184 26.324 62.56 1.056 3.093 2.105 6.192 3.158 9.292 3.52 10.392 7.158 21.138 11.04 31.52 12.545 33.585 26.158 59.04 42.837 80.117 11.9 15.031 25.466 27.999 42.17 42.845 40.14 35.673 90.094 80.067 112.604 135.345 5.844 14.378 9.737 29.314 11.576 44.392 3.927 32.532-1.818 64.57-7.265 88.848-6.756 29.73-17.66 59.59-31.533 86.348-10.94 21.099-25.65 40.55-39.876 59.358-14.88 19.672-28.931 38.252-38.635 58.166a297.192 297.192 0 0 1-4.752 9.307c-20.532 38.758-53.363 65.096-85.782 87.784-18.903 13.228-33.772 36.598-48.147 59.2-9.813 15.424-19.08 29.99-28.98 40.2-22.331 23.033-46.829 46.419-79.041 57.163-17.29 5.767-35.506 7.84-51.294 5.84-5.363-.68-10.531-1.726-15.529-2.736-4.413-.89-8.975-1.811-13.543-2.45a97.752 97.752 0 0 0-15.626-.924c-22.804.512-46.432 9.348-69.283 17.892-10.065 3.765-20.476 7.657-30.442 10.663-39.19 11.706-74.525 9.686-108.021-6.185-30.148-14.281-61.855-47.475-80.777-84.567a513.229 513.229 0 0 1-5.746-11.64l-1.09-2.277c-7.76-16.227-15.091-31.552-29.026-45.464-10.35-10.332-25.111-19.353-43.871-26.812-6.834-2.684-13.72-5.028-20.373-7.295l-.58-.196c-8.26-2.79-16.316-5.583-24.107-9.03-37.809-16.72-63.407-44.595-70.227-76.475-4.773-22.45-.015-46.242 4.584-69.25 4.23-21.16 8.605-43.039 5.682-64.037-.767-5.405-1.98-10.737-3.709-16.303-3.866-12.436-9.553-23.575-15.576-35.368-1.105-2.166-2.215-4.337-3.317-6.525-11.018-21.898-21.166-45.702-30.16-70.756-9.892-27.52-21.252-63.795-21.298-100.334-.064-50.55 22.612-101.528 60.658-136.369 20.13-18.434 44.462-32.679 67.995-46.456 18.486-10.822 37.6-22.014 54.253-35.044 4.496-3.513 8.723-7.11 12.565-10.688 7.012-6.5 13.362-13.445 19.501-20.162 5.14-5.624 10.457-11.44 16.066-16.876 31.07-30.166 73.821-50.847 115.387-68.707 39.662-17.11 82.286-33.668 138.209-53.687 38.551-13.767 76.39-26.56 115.456-31.793 31.993-4.347 60.15-2.359 84.138 5.901 11.482 3.954 22.014 9.347 31.549 16.168"/><path d="M640.77 747.085c1.024-.142 2.037-.281 3.017-.391 2.58-.289 4.995-.18 7.883-.01 1.588.095 3.227.248 4.829.4 1.135.106 2.249.211 3.309.293 2.02.15 3.626.098 5.372-.173 1.259-.195 2.335-.54 3.389-1.083 1.989-1.028 3.849-3.05 5.104-5.552.213-.423.408-.85.577-1.279.326-.812.6-1.67.865-2.5.65-2.041 1.322-4.15 2.83-5.973.63-.76 1.399-1.419 2.142-2.054.639-.548 1.243-1.063 1.762-1.637 1.623-1.794 2.413-3.948 2.419-6.586.003-1.777-.352-3.545-.665-4.885-.735-3.178-1.648-6.502-3.938-9.175a10.493 10.493 0 0 0-2.862-2.375c-3.259-1.839-7.28-1.841-11.535-1.843-2.468-.002-5.02-.003-7.578-.356l-.85-.118c-1.995-.282-3.88-.548-5.868-.617-2.939-.1-6.148.182-10.102.893-9.183 1.65-15.138 4.985-17.7 9.912-1.288 2.497-1.652 5.298-1.182 9.08.167 1.34.423 2.711.67 4.037.338 1.815.686 3.69.828 5.565.036.491.06.99.073 1.487.02.797.014 1.6.008 2.4-.016 2.515-.032 4.891.69 7.014.948 2.8 2.537 4.585 4.86 5.457.077.03.156.057.236.084 3.235 1.114 7.393.54 11.416-.015m36.628-44.03a11.83 11.83 0 0 1 3.19 2.644c2.47 2.88 3.463 6.511 4.2 9.69.326 1.403.698 3.257.694 5.159-.006 2.948-.899 5.364-2.728 7.387-.57.632-1.233 1.197-1.873 1.746-.737.63-1.432 1.224-1.998 1.904-1.359 1.645-1.968 3.553-2.611 5.575-.272.85-.551 1.729-.892 2.58-.183.459-.39.918-.62 1.373-1.367 2.723-3.417 4.938-5.627 6.079-1.174.608-2.369.989-3.761 1.205-1.84.287-3.53.341-5.65.184-1.067-.082-2.19-.187-3.332-.296-1.587-.148-3.214-.302-4.787-.396-2.828-.167-5.191-.274-7.677.005-.97.108-1.97.246-2.984.386-4.272.591-8.662 1.184-12.25-.136-2.685-1.008-4.51-3.037-5.584-6.202-.786-2.316-.77-4.905-.753-7.41.005-.789.011-1.579-.008-2.362-.01-.477-.035-.954-.07-1.427-.136-1.808-.479-3.652-.812-5.434-.25-1.343-.509-2.732-.68-4.109-.31-2.506-.515-6.246 1.306-9.78 2.744-5.276 8.988-8.824 18.56-10.544 4.04-.726 7.332-1.015 10.36-.911 2.053.072 4.056.353 5.995.627l.847.119c2.475.341 4.985.342 7.411.343 3.564.002 6.968.004 10.01 1.051.728.251 1.44.563 2.124.95"/><path d="M647.426 772.315c8.517-2.014 15.514-3.267 22.022-3.942 8.56-.92 16.175-.61 22.632.918 3.165.751 6.029 1.757 8.795 2.733 2.32.817 4.518 1.59 6.8 2.189 4.022 1.04 7.38 1.203 10.894.533 8.417-1.61 14.401-8.04 17.219-11.733a40.274 40.274 0 0 0 2.154-3.112c1.414-2.265 2.656-4.656 3.859-6.968 2.356-4.532 4.79-9.22 8.67-13.275 1.966-2.053 4.293-3.906 6.543-5.695 2.22-1.766 4.515-3.592 6.418-5.582 5.526-5.769 8.174-12.91 8.096-21.826-.048-5.521-1.136-11.129-2.192-15.886-2.09-9.412-4.688-21.128-12.067-30.143-2.73-3.339-5.774-5.937-9.308-7.947-10.147-5.771-22.557-5.558-35.701-5.334-8.318.143-16.92.29-25.521-1.044-1.64-.254-3.264-.541-4.886-.827-3.858-.685-7.848-1.39-11.932-1.594-8.93-.445-18.22 1.464-25.316 3.174-15.706 3.785-43.564 12.987-53.684 32.094-3.544 6.71-4.712 14.01-3.79 23.668.377 3.945 1.062 7.974 1.725 11.868.704 4.13 1.43 8.397 1.802 12.617.11 1.264.19 2.525.235 3.749.11 2.996.027 6.06-.05 9.026-.14 5.24-.285 10.658.649 15.693 1.143 6.158 4.353 14.341 13.158 18.366.743.335 1.505.636 2.283.904 11.01 3.79 25.44.937 40.493-2.624M748.568 651.51c3.667 2.088 6.824 4.782 9.65 8.237 7.566 9.243 10.2 21.117 12.317 30.655 1.069 4.82 2.17 10.506 2.219 16.141.083 9.254-2.678 16.674-8.437 22.684-1.958 2.051-4.286 3.903-6.539 5.695-2.218 1.764-4.51 3.59-6.42 5.583-3.758 3.93-6.152 8.537-8.468 12.992-1.214 2.334-2.467 4.747-3.908 7.053a40.457 40.457 0 0 1-2.22 3.205c-2.923 3.832-9.147 10.51-17.963 12.194-3.648.7-7.282.522-11.433-.552-2.334-.608-4.551-1.39-6.9-2.218-2.74-.96-5.569-1.96-8.67-2.695-6.32-1.496-13.796-1.798-22.22-.893-6.455.67-13.402 1.914-21.866 3.916-16.334 3.864-31.96 6.9-43.569 1.643-9.286-4.245-12.66-12.815-13.854-19.258-.959-5.163-.814-10.648-.67-15.951.078-2.946.157-5.989.049-8.949a72.903 72.903 0 0 0-.23-3.685c-.368-4.17-1.089-8.415-1.788-12.518-.669-3.918-1.358-7.969-1.738-11.957-.946-9.912.264-17.425 3.926-24.36 10.345-19.532 38.575-28.878 54.481-32.71 7.176-1.731 16.577-3.66 25.664-3.21 4.162.21 8.191.923 12.085 1.613 1.614.285 3.23.571 4.862.824 8.495 1.319 17.045 1.172 25.31 1.03 10.829-.187 21.167-.364 30.264 2.769 2.09.72 4.116 1.615 6.066 2.722"/><path d="M654.418 808.413c14.053-3.792 27.803-7.364 41.545-9.406 16.86-2.517 30.722-2.122 42.376 1.207 6.207 1.749 11.932 4.374 17.468 6.912 3.913 1.794 7.96 3.647 12.037 5.116 7.683 2.77 14.483 3.681 21.348 2.888 16.365-1.916 28.372-13.457 34.072-20.166 1.537-1.807 3-3.7 4.341-5.63 2.976-4.27 5.607-8.77 8.153-13.124 4.652-7.963 9.467-16.2 16.595-23.36 3.79-3.808 8.231-7.29 12.524-10.657 4.477-3.511 9.107-7.14 12.957-11.116 10.935-11.283 16.157-25.316 15.956-42.903-.12-10.667-2.135-21.233-4.294-31.063-4.29-19.525-9.152-41.658-23.276-59.095-5.33-6.584-11.286-11.703-18.208-15.651-19.618-11.19-43.573-10.669-68.936-10.119-16.434.356-33.426.723-50.394-2.01-3.293-.524-6.6-1.151-9.795-1.758-6.753-1.282-13.737-2.608-20.929-3.003-15.877-.867-32.312 2.716-46.296 6.333-30.278 7.832-83.955 26.393-103.287 62.71-6.654 12.514-8.933 26.002-7.391 43.74.657 7.567 1.94 15.29 3.18 22.762 1.21 7.28 2.46 14.806 3.14 22.228.218 2.365.372 4.671.462 6.855.243 6.061.017 12.277-.2 18.285-.33 9.085-.673 18.48.623 27.405 1.752 12.04 7.434 28.107 24.573 36.274a49.222 49.222 0 0 0 5.112 2.08c21.196 7.3 49.205 1.643 76.544-5.734m194.198-227.111c7.057 4.025 13.127 9.239 18.552 15.943 14.307 17.663 19.2 39.945 23.519 59.604 2.173 9.891 4.203 20.532 4.325 31.31.201 17.926-5.13 32.243-16.302 43.769-3.909 4.034-8.57 7.69-13.08 11.226-4.264 3.346-8.675 6.802-12.411 10.557-7.019 7.053-11.792 15.217-16.408 23.117-2.555 4.373-5.199 8.896-8.205 13.205a74.374 74.374 0 0 1-4.413 5.723c-5.818 6.845-18.079 18.622-34.861 20.587-7.057.818-14.032-.111-21.9-2.951-4.127-1.484-8.197-3.35-12.133-5.155-5.496-2.518-11.18-5.12-17.292-6.846-11.487-3.282-25.181-3.666-41.866-1.175-13.675 2.034-27.389 5.594-41.407 9.376-29.824 8.048-60.462 14.056-82.498 3.58-17.625-8.4-23.463-24.867-25.255-37.203-1.313-9.036-.969-18.485-.636-27.623.217-5.987.443-12.179.201-18.192a136.59 136.59 0 0 0-.457-6.795c-.677-7.376-1.924-14.882-3.129-22.138-1.243-7.493-2.53-15.243-3.193-22.857-1.562-17.985.758-31.686 7.532-44.42 19.55-36.73 73.586-55.437 104.057-63.319 14.074-3.641 30.626-7.246 46.67-6.369 7.273.397 14.297 1.731 21.089 3.021 3.188.606 6.484 1.23 9.76 1.751 16.86 2.718 33.795 2.351 50.174 1.996 20.807-.45 40.672-.88 58.085 5.115 3.96 1.364 7.795 3.06 11.482 5.163"/><path d="M569.142 878.99l2.518.695c12.316 3.415 22.283 5.335 33.327 6.423 19.012 1.874 39.16.785 56.73-3.064 11.38-2.493 22.828-6.381 33.901-10.142 5.247-1.78 10.67-3.623 16.002-5.286 21.072-6.52 37.604-8.695 52.03-6.845 3.322.425 6.61 1.029 9.793 1.615 1.162.214 2.328.427 3.502.636 3.76.672 7.59 1.14 11.296 1.592 3.679.45 7.154.873 10.562 1.482 9.402 1.68 18.01 4.757 26.335 7.728 15.207 5.431 29.57 10.565 47.28 7.02 3.552-.708 7.25-1.855 11.638-3.604 21.032-8.388 35.224-27.2 41.816-37.67 3.6-5.693 6.874-11.63 10.037-17.37 7.542-13.68 14.665-26.6 26.141-37.187 3.824-3.528 8.502-6.347 13.026-9.073 2.667-1.607 5.424-3.27 8.015-5.076 7.12-4.936 16.241-11.604 23.631-19.402 12.144-12.73 20.117-28.021 24.374-46.754 3.523-15.665 4.16-33.042 1.888-51.648-.88-7.173-2.217-14.786-4.082-23.266-6.374-28.966-16.917-65.96-42.06-95.148-9.1-10.561-19.437-19.205-31.603-26.422-26.32-15.518-55.486-20.191-83.111-23.643a2091.74 2091.74 0 0 0-17.684-2.109c-21.942-2.555-44.629-5.199-68.38-10.31-15.142-3.261-28.544-4.992-40.974-5.294a169.69 169.69 0 0 0-10.693.086c-25.366 1.097-51.588 8.521-76.948 15.701l-.246.073c-24.743 6.948-53.327 15.413-79.436 27.94-42.164 20.162-72.617 48.953-85.749 81.07-6.997 17.11-9.701 35.43-8.508 57.654.733 13.746 2.696 27.811 4.592 41.413 1.591 11.401 3.236 23.191 4.156 34.764.492 6.168.77 12.163.827 17.82.076 7.733-.275 15.655-.613 23.316-.716 16.242-1.457 33.038 1.833 48.778 4.044 19.356 14.502 35.662 29.447 45.917 4.454 3.055 9.603 5.754 15.74 8.247 2.106.849 4.331 1.673 6.799 2.523l.027.009c7.395 2.546 15.237 4.714 22.824 6.811M955.86 507.175c12.285 7.285 22.72 16.012 31.906 26.673 25.326 29.398 35.923 66.578 42.328 95.684 1.875 8.522 3.218 16.168 4.103 23.38 2.287 18.748 1.645 36.265-1.91 52.066-4.307 18.955-12.38 34.436-24.678 47.325-7.467 7.879-16.652 14.595-23.819 19.562-2.624 1.83-5.397 3.503-8.08 5.12-4.678 2.82-9.098 5.481-12.83 8.925-11.331 10.453-18.407 23.29-25.9 36.88-3.174 5.757-6.454 11.708-10.074 17.434-6.668 10.59-21.042 29.633-42.398 38.15-4.456 1.777-8.22 2.944-11.848 3.67-18.044 3.61-32.557-1.577-47.935-7.07-8.274-2.96-16.834-6.017-26.137-7.678-3.374-.6-6.833-1.023-10.495-1.47-3.72-.454-7.569-.924-11.36-1.603-1.177-.207-2.344-.422-3.51-.637-3.167-.581-6.442-1.183-9.726-1.604-14.246-1.825-30.615.335-51.514 6.8-5.315 1.657-10.73 3.497-15.97 5.276-11.105 3.77-22.587 7.67-34.033 10.178-17.69 3.878-37.974 4.973-57.112 3.087-11.118-1.094-21.146-3.025-33.534-6.461l-2.518-.695c-7.601-2.102-15.465-4.274-22.898-6.834l-.025-.008c-2.487-.857-4.73-1.69-6.86-2.547-6.22-2.527-11.444-5.266-15.973-8.372-15.204-10.435-25.842-27.01-29.951-46.674-3.323-15.89-2.576-32.765-1.857-49.084.337-7.643.685-15.55.611-23.246-.056-5.629-.332-11.598-.825-17.737-.917-11.54-2.558-23.31-4.147-34.694-1.9-13.628-3.867-27.717-4.603-41.514-1.201-22.412 1.53-40.9 8.598-58.182 13.246-32.398 43.915-61.416 86.351-81.708 26.197-12.57 54.842-21.052 79.631-28.017l.247-.069c25.427-7.199 51.72-14.643 77.23-15.746 3.495-.141 7.019-.17 10.773-.089 12.507.305 25.984 2.044 41.202 5.321 23.693 5.1 46.352 7.74 68.266 10.292 5.996.698 11.895 1.386 17.693 2.11 18.808 2.35 38.331 5.265 57.218 11.768 8.98 3.092 17.817 6.996 26.363 12.038"/><path d="M531.185 932.825l3.358.83c3.083.767 6.106 1.528 9.19 2.402 13.22 3.762 23.585 8.691 30.798 14.659 7.526 6.227 11.811 12.625 15.953 18.813 2.474 3.692 4.81 7.18 7.776 10.603 11.449 13.217 35.934 26.238 62.637 23.589 18.92-1.875 36.255-11.354 53.017-20.523 3.733-2.041 7.594-4.153 11.387-6.13 27.182-14.043 50.226-17.374 68.449-9.955 2.399.98 4.742 2.127 7.012 3.238 2.978 1.457 6.058 2.966 9.277 4.093l.284.1c9.271 3.191 19.342 2.081 28.238 1.1l.468-.053c6.271-.692 12.12-1.07 17.77-1.436 17.986-1.163 33.516-2.168 50.47-12.935 2.486-1.578 4.755-3.422 7.156-5.37.75-.608 1.497-1.217 2.257-1.817 11.4-9.05 22.678-26.1 31.759-48.006 1.51-3.644 2.987-7.371 4.417-10.973 7.8-19.674 15.168-38.256 29.297-49.233 4.646-3.609 10.744-5.289 17.202-7.066 4.988-1.374 10.144-2.796 14.51-5.184 12.97-7.033 24.018-15.557 32.832-25.336 13.677-15.176 23.377-33.85 31.448-60.546 7.138-23.912 10.185-45.411 9.317-65.728-.423-9.648-1.78-19.76-4.034-30.058-9.43-43.054-32.267-84.436-64.304-116.523-10.923-10.939-22.423-20.112-33.545-28.983l-1.778-1.418c-25.83-20.62-47.993-37.694-72.196-53.996-21.311-14.354-47.542-30.49-80.357-41.359-16.408-5.43-35.305-6.208-57.766-2.376a283.385 283.385 0 0 0-14.818 2.98c-22.683 5.22-45.597 13.494-67.756 21.496-12.614 4.554-25.656 9.264-38.676 13.429-8.522 2.7-17.295 5.302-25.782 7.822-26.86 7.968-54.637 16.21-79.759 28.999-51.616 26.137-87.469 71.015-95.907 120.052-4.351 25.284-1.93 50.483.68 72.118l.901 7.444c3.486 28.749 7.093 58.476 6.723 87.388-.085 6.82-.373 14.032-.876 22.051-.293 4.558-.645 9.14-.997 13.725-1.958 25.393-3.982 51.649 4.894 74.908 8.377 21.95 26.718 39.401 50.32 47.881.389.138.775.275 1.163.408 5.595 1.927 11.433 3.363 17.59 4.876m381.107-482.857c24.237 16.325 46.422 33.417 72.276 54.056l1.777 1.418c11.148 8.891 22.675 18.087 33.648 29.074 32.198 32.25 55.153 73.845 64.634 117.125 2.268 10.367 3.634 20.55 4.06 30.268.875 20.454-2.19 42.084-9.368 66.13-8.126 26.88-17.907 45.697-31.712 61.013-8.908 9.884-20.063 18.495-33.154 25.593-4.49 2.456-9.716 3.897-14.77 5.288-6.337 1.746-12.321 3.394-16.776 6.855-13.867 10.771-21.174 29.202-28.912 48.715-1.43 3.607-2.909 7.34-4.424 10.99-9.157 22.099-20.57 39.32-32.13 48.496-.753.6-1.5 1.205-2.244 1.81-2.321 1.886-4.725 3.837-7.27 5.453-17.218 10.935-32.897 11.95-51.047 13.125-5.64.363-11.47.74-17.716 1.43l-.467.051c-9.025.996-19.238 2.125-28.767-1.156l-.297-.104c-3.285-1.153-6.398-2.677-9.409-4.149-2.25-1.102-4.573-2.24-6.936-3.204-17.877-7.284-40.573-3.962-67.423 9.909-3.78 1.97-7.634 4.077-11.362 6.117-16.872 9.227-34.316 18.768-53.484 20.667-27.134 2.689-52.033-10.559-63.683-24.004-3.014-3.482-5.37-7-7.868-10.726-4.093-6.113-8.328-12.437-15.716-18.55-7.084-5.858-17.292-10.71-30.351-14.425-3.067-.87-6.079-1.627-9.151-2.392l-3.357-.83c-6.617-1.626-12.86-3.158-18.875-5.319-23.938-8.601-42.543-26.313-51.049-48.598-8.972-23.513-6.94-49.91-4.971-75.434.352-4.583.704-9.157.996-13.71.502-8 .79-15.192.874-21.99.368-28.831-3.232-58.517-6.715-87.224l-.901-7.446c-2.621-21.721-5.049-47.025-.67-72.472 8.504-49.414 44.6-94.624 96.558-120.936 25.221-12.84 53.05-21.097 79.964-29.08 8.482-2.516 17.252-5.117 25.762-7.813 12.995-4.158 26.026-8.863 38.63-13.414 22.193-8.015 45.141-16.302 67.896-21.54a284.304 284.304 0 0 1 14.885-2.99c22.668-3.869 41.755-3.078 58.356 2.417.981.32 1.945.651 2.911.984 31.614 10.885 57 26.548 77.748 40.522"/><path d="M495.434 991.96c5.213.858 10.61 1.42 15.83 1.966 4.472.466 9.095.948 13.691 1.619 4.44.637 8.35 1.373 11.957 2.248 9.533 2.316 27.01 8.374 36.965 22.971 7.96 11.672 8.94 24.515 9.888 36.936.487 6.386.992 12.99 2.447 19.32 6.946 30.202 38.916 55.256 69.813 54.698 25.86-.464 47.98-16.143 69.374-31.302 3.934-2.788 8-5.67 11.994-8.383 19.457-13.168 56.682-32.425 87.429-13.514 2.75 1.692 5.392 3.657 7.946 5.557 3.756 2.792 7.638 5.68 11.876 7.699 10.057 4.818 22.293 4.468 37.415-1.044 27.07-9.87 46.168-24.756 61.924-48.269 1.587-2.372 3.052-4.93 4.47-7.404.758-1.32 1.518-2.647 2.302-3.963 7.987-13.36 14.575-37.841 19.968-60.028 6.395-25.994 13.645-55.456 30.744-66.612 5.981-3.901 14.262-4.757 23.03-5.663 7.376-.763 15-1.552 21.095-4.312 16.822-7.584 31.89-18.726 43.574-32.222 19.393-22.265 30.63-51.148 39.642-76.473 8.489-24 17.575-52.11 17.952-82.017.148-12.385-1.197-25.153-3.998-37.947-10.789-49.276-42.864-99.447-90.315-141.274-4.45-3.923-9.034-7.77-13.465-11.492-8.87-7.444-18.04-15.145-26.168-23.498-21.738-22.195-35.938-47.673-49.67-72.313-3.15-5.655-6.41-11.503-9.679-17.153-15.604-26.982-38.09-59.894-73.767-75.036-13.044-5.535-35.257-11.45-77.437.996a436.95 436.95 0 0 0-19.615 6.346c-22.9 8.037-45.751 18.05-67.85 27.733-23.518 10.304-47.834 20.957-72.583 29.426-14.623 4.98-29.78 9.38-44.438 13.635-30.848 8.955-62.744 18.215-91.501 33.405-64.298 33.877-106.56 98.765-107.667 165.308-.401 24.008 4.044 48.1 8.343 71.4 1.05 5.7 2.14 11.594 3.142 17.41 7.195 41.759 9.333 80.912 6.359 116.376-.76 9.137-1.826 18.32-2.849 26.946l-.44 3.69c-4.284 35.778-8.714 72.772 7.524 104.125 10.798 20.84 30.173 36.64 54.642 45.066 6.376 2.195 13.098 3.89 20.106 5.044m384.741-668.032c36.011 15.283 58.65 48.404 74.35 75.551 3.272 5.658 6.535 11.51 9.688 17.17 13.694 24.568 27.852 49.974 49.475 72.053 8.086 8.313 17.234 15.99 26.08 23.417 4.436 3.726 9.028 7.578 13.488 11.51 47.644 41.997 79.857 92.404 90.7 141.93 2.822 12.884 4.176 25.744 4.027 38.224-.376 30.092-9.5 58.317-18.023 82.41-9.047 25.431-20.339 54.441-39.868 76.866-11.8 13.628-27.015 24.877-43.995 32.532-6.275 2.844-14 3.643-21.473 4.415-8.617.89-16.755 1.732-22.487 5.472-16.698 10.893-23.885 40.105-30.228 65.878-5.41 22.274-12.033 46.864-20.103 60.366a245.03 245.03 0 0 0-2.29 3.943c-1.428 2.492-2.904 5.07-4.518 7.476-15.908 23.74-35.19 38.771-62.521 48.737-15.446 5.63-27.99 5.963-38.362 1-4.343-2.07-8.274-4.994-12.076-7.822-2.534-1.883-5.153-3.832-7.859-5.496-30.146-18.564-66.887.48-86.099 13.485-3.983 2.704-8.047 5.583-11.975 8.368-21.544 15.268-43.821 31.054-70.058 31.526-31.431.56-63.96-24.918-71.028-55.646-1.477-6.42-1.985-13.07-2.476-19.501-.934-12.26-1.902-24.94-9.677-36.341-9.724-14.258-26.88-20.205-36.245-22.472-3.567-.864-7.44-1.592-11.842-2.225-4.573-.67-9.182-1.15-13.641-1.615-5.24-.545-10.654-1.111-15.903-1.974-34.283-5.634-61.847-24.136-75.635-50.754-16.414-31.687-11.961-68.871-7.655-104.83l.443-3.693c1.022-8.612 2.084-17.785 2.845-26.902 2.965-35.358.83-74.41-6.348-116.065-1.003-5.81-2.089-11.702-3.14-17.397-4.309-23.358-8.765-47.512-8.363-71.64 1.116-66.985 43.635-132.288 108.319-166.368 28.866-15.251 60.825-24.528 91.732-33.5 14.645-4.251 29.788-8.647 44.382-13.618 24.7-8.451 48.995-19.095 72.488-29.39 22.119-9.692 44.993-19.713 67.936-27.766a438.245 438.245 0 0 1 19.673-6.364c37.226-10.987 59.092-7.77 72.835-3.039a83.203 83.203 0 0 1 5.427 2.09"/><path d="M469.229 1044.993c5.481.514 11.08.782 16.494 1.042 3.408.163 6.932.332 10.4.562 6.233.413 14.454 1.136 22.783 3.087 19.28 4.525 34.716 15.38 42.354 29.78 8.345 15.703 7.181 33.384 6.053 50.484-.273 4.158-.557 8.46-.705 12.686-.186 5.48-.12 10.005.209 14.246 3.138 41.13 38.82 79.291 76.367 81.685 32.33 2.054 59.494-18.065 85.765-37.523 3.724-2.759 7.44-5.51 11.159-8.192 19.555-14.119 57.355-36.073 90.882-24.527l.059.02a58.939 58.939 0 0 1 13.77 6.897c3.227 2.169 6.305 4.7 9.284 7.15 4.434 3.648 9.022 7.423 14.122 9.992 12.672 6.4 29.152 5.251 45.223-3.18 27.615-14.488 48.682-44.457 62.613-89.074 3.126-10.009 5.406-25.495 7.819-41.89 5.52-37.498 12.388-84.165 33.77-96.7 7.891-4.629 18.475-6.185 28.71-7.695 10.167-1.495 20.681-3.044 28.767-7.556a165.899 165.899 0 0 0 4.356-2.508c20.54-12.248 38.255-27.362 51.23-43.707 20.545-25.89 33.634-58.55 45.28-89.784 10.62-28.511 22.653-60.828 23.725-95.314.507-16.387-1.46-33.147-5.845-49.813-17.75-67.425-70.312-121.42-111.279-154.845-2.155-1.763-4.32-3.513-6.489-5.265-12.743-10.294-25.92-20.94-36.696-34.014-19.227-23.33-29.426-52.092-37.585-79.698-2.1-7.102-4.12-14.36-6.076-21.38-1.73-6.215-3.52-12.644-5.344-18.889-16.186-55.418-38.464-89.633-68.108-104.602-32.231-16.415-68.311-7.789-96.146 1.57-30.41 10.21-59.331 23.475-88.748 37.31-3.693 1.737-7.385 3.48-11.076 5.222-31.99 15.1-65.07 30.716-98.84 42.97-16.234 5.885-33.004 11.125-49.223 16.196-19.775 6.178-40.222 12.569-59.565 20.102-14.345 5.58-27.727 11.601-40.913 18.406a396.192 396.192 0 0 0-12.337 6.649c-37.798 21.295-69.122 50.079-90.582 83.244-24.227 37.353-35.654 79.577-33.044 122.112 1.553 24.478 7.66 48.958 13.564 72.632 2.466 9.886 5.015 20.11 7.2 30.191 5.813 26.866 9.317 54.106 10.413 80.965.738 18.342.347 35.31-1.195 51.873-.497 5.392-1.152 11.297-2 18.051-.735 5.833-1.564 11.812-2.364 17.595-5.696 41.124-11.585 83.65 8.525 119.285 12.107 21.448 33.42 37.915 59.78 46.991 10.453 3.6 21.703 6.036 33.484 7.16m453.62-799.614c29.961 15.127 52.442 49.59 68.73 105.35 1.824 6.252 3.616 12.685 5.347 18.906 1.954 7.013 3.974 14.265 6.068 21.358 8.124 27.482 18.271 56.107 37.36 79.268 10.697 12.977 23.824 23.584 36.517 33.84 2.172 1.754 4.341 3.505 6.498 5.27 41.106 33.538 93.852 87.739 111.686 155.478 4.415 16.78 6.396 33.658 5.885 50.164-1.075 34.686-13.149 67.103-23.8 95.705-11.68 31.323-24.813 64.084-45.47 90.115-13.064 16.46-30.894 31.675-51.558 43.994-1.45.87-2.916 1.707-4.39 2.526-8.28 4.623-18.907 6.189-29.183 7.7-10.586 1.56-20.583 3.033-28.269 7.54-20.877 12.24-27.698 58.585-33.18 95.824-2.42 16.444-4.707 31.976-7.862 42.078-14.031 44.936-35.299 75.145-63.211 89.79-16.425 8.618-33.32 9.775-46.343 3.188-5.218-2.629-9.86-6.446-14.349-10.138-2.954-2.43-6.01-4.945-9.19-7.08a57.663 57.663 0 0 0-13.542-6.774c-33.004-11.364-70.409 10.382-89.769 24.361-3.715 2.678-7.426 5.428-11.15 8.184-26.445 19.59-53.793 39.842-86.568 37.76-38.105-2.416-74.329-41.118-77.508-82.812-.332-4.286-.4-8.855-.212-14.38.146-4.248.432-8.558.707-12.725 1.167-17.71 2.27-34.436-5.912-49.83-7.474-14.09-22.62-24.716-41.553-29.166-8.243-1.93-16.4-2.648-22.586-3.055-3.457-.228-6.975-.399-10.378-.561-5.428-.262-11.039-.53-16.55-1.047-41.889-3.997-77.109-24.468-94.215-54.767-20.31-35.996-14.393-78.728-8.67-120.054.801-5.78 1.629-11.755 2.362-17.58.846-6.741 1.5-12.632 1.996-18.011 1.537-16.508 1.928-33.424 1.192-51.71-1.095-26.79-4.588-53.96-10.39-80.755-2.178-10.065-4.726-20.278-7.189-30.156-5.918-23.726-12.037-48.26-13.599-72.852-2.625-42.797 8.867-85.279 33.238-122.851 21.568-33.328 53.039-62.253 91.009-83.644a391.065 391.065 0 0 1 12.378-6.67c13.222-6.825 26.643-12.863 41.028-18.461 19.381-7.547 39.85-13.945 59.644-20.13 16.206-5.064 32.963-10.301 49.172-16.176 33.714-12.236 66.768-27.839 98.734-42.927 3.692-1.743 7.383-3.484 11.077-5.223 29.449-13.852 58.41-27.133 88.88-37.362 25.041-8.422 56.72-16.255 86.44-6.022a82.722 82.722 0 0 1 10.647 4.52"/><path d="M657.702 1342.075c26.26-.4 51.315-10.458 75.543-20.182 10.967-4.402 22.307-8.953 33.649-12.573 25.372-8.096 52.203-11.94 78.154-15.657 10.043-1.439 20.43-2.926 30.579-4.64 80.42-13.572 152.167-43.063 207.484-85.287 57.9-44.193 96.699-101.678 118.612-175.741 10.52-35.556 32.511-68.078 53.782-99.53 19.576-28.948 39.82-58.884 51.873-91.838 12.474-34.102 18.699-69.812 18.002-103.274-.775-37.194-9.779-70.502-26.759-98.998-19.357-32.487-48.665-57.867-77.009-82.413-12.088-10.469-24.587-21.29-36.17-32.539-37.343-36.252-68.394-80.49-89.793-127.931-6.468-14.337-12.329-29.45-18-44.066-16.267-41.936-33.087-85.297-66.22-115.694-32.246-29.581-79.61-45.655-133.371-45.262-47.484.347-94.086 12.604-141.627 26.23-51.653 14.802-111.363 32.808-166.315 59.22-58.947 28.333-98.624 61.275-121.296 100.707-4.062 7.065-7.687 14.555-11.193 21.795-5.577 11.522-11.344 23.435-19.019 33.956-10.832 14.846-25.617 27.456-45.197 38.551-17.454 9.888-37.103 17.73-56.105 25.312-22.239 8.874-45.233 18.051-65.295 30.67-50.803 31.95-84.336 89.026-87.512 148.952-3.176 59.927 24.133 120.236 71.273 157.39 3.71 2.923 7.647 5.813 11.453 8.606 14.69 10.78 29.879 21.926 37.203 38.582 11.279 25.644.512 51.47-10.887 78.811-6.895 16.542-14.026 33.646-15.896 50.79-2.333 21.381 3.431 42.985 17.132 64.215 11.816 18.308 29.006 35.34 49.71 49.258 17.571 11.812 36.797 21.659 55.389 31.183 22.114 11.328 44.979 23.04 65.214 38.136 23.312 17.39 43.206 39.312 62.445 60.512 10.559 11.633 21.478 23.664 32.841 34.815 25.849 25.367 51.573 42.48 76.873 51.192 13.623 4.69 27.122 6.944 40.453 6.742m354.554-1111.264c33.344 30.59 50.215 74.087 66.534 116.152 5.665 14.601 11.52 29.7 17.974 44.006 21.336 47.302 52.294 91.412 89.53 127.558 11.56 11.222 24.044 22.034 36.118 32.49 28.417 24.61 57.802 50.056 77.26 82.712 17.09 28.68 26.15 62.19 26.93 99.6.7 33.612-5.55 69.477-18.076 103.72-12.103 33.092-32.391 63.09-52.008 92.103-22.192 32.817-43.156 63.815-53.623 99.19-21.988 74.32-60.929 132.01-119.04 176.366-55.476 42.344-127.41 71.915-208.023 85.522-10.167 1.715-20.56 3.204-30.612 4.644-25.898 3.709-52.68 7.545-77.956 15.61-11.297 3.606-22.617 8.15-33.562 12.542-24.334 9.768-49.493 19.868-75.98 20.27-38.43.587-78.196-19.023-118.201-58.282-11.39-11.176-22.321-23.219-32.889-34.867-19.2-21.157-39.056-43.034-62.272-60.352-20.155-15.035-42.974-26.724-65.041-38.028-18.625-9.54-37.88-19.404-55.511-31.259-20.844-14.008-38.152-31.162-50.059-49.61-13.858-21.47-19.684-43.34-17.32-65.009 1.89-17.32 9.055-34.505 15.985-51.126 11.293-27.093 21.962-52.684 10.896-77.849-7.194-16.357-22.247-27.405-36.809-38.088-3.817-2.802-7.76-5.696-11.486-8.633-47.446-37.397-74.934-98.097-71.736-158.415 3.197-60.317 36.947-117.764 88.079-149.923 20.158-12.679 43.206-21.875 65.493-30.77 39.524-15.772 76.855-30.67 100.77-63.45 7.61-10.429 13.353-22.292 18.905-33.766 3.517-7.26 7.15-14.77 11.236-21.872 22.797-39.653 62.647-72.756 121.825-101.2 55.037-26.453 114.808-44.476 166.508-59.295 47.624-13.647 94.317-25.926 141.955-26.274 27.341-.2 53.04 3.84 75.972 11.736 22.413 7.717 42.182 19.121 58.234 33.847"/></g></svg>