<svg enable-background="new 0 0 160.9 44.7" height="44.7" viewBox="0 0 160.9 44.7" width="160.9" xmlns="http://www.w3.org/2000/svg" xmlns:xlink="http://www.w3.org/1999/xlink"><mask id="a" height="27.7" maskUnits="userSpaceOnUse" width="155.4" x=".1" y="-.3"><path clip-rule="evenodd" d="m.1-.3h155.4v27.7h-155.4z" fill="#fff" fill-rule="evenodd"/></mask><mask id="b" height="5.4" maskUnits="userSpaceOnUse" width="5.4" x="5.4" y="21.8"><path clip-rule="evenodd" d="m0 44.7h160.9v-44.7h-160.9z" fill="#fff" fill-rule="evenodd"/></mask><mask id="c" height="5.4" maskUnits="userSpaceOnUse" width="5.4" x="0" y="16.3"><path clip-rule="evenodd" d="m0 44.7h160.9v-44.7h-160.9z" fill="#fff" fill-rule="evenodd"/></mask><mask id="d" height="12.4" maskUnits="userSpaceOnUse" width="116.7" x="0" y="32.3"><path clip-rule="evenodd" d="m0 44.7h160.9v-44.7h-160.9z" fill="#fff" fill-rule="evenodd"/></mask><g clip-rule="evenodd" fill-rule="evenodd"><path d="m144.8 9.7c-1.2 0-2.3.4-3.3 1.2s-1.6 1.9-1.9 3.4h10.4c-.3-1.5-.9-2.6-1.8-3.4s-2-1.2-3.4-1.2zm-5.4 8.3c.2 1.6.9 2.8 1.9 3.6s2.3 1.2 3.9 1.2c2 0 3.4-.7 4.2-2h5.6c-.6 2.1-1.8 3.8-3.5 4.9s-3.8 1.7-6.3 1.7c-1.6 0-3-.3-4.4-.8-1.3-.5-2.5-1.3-3.5-2.3s-1.8-2.2-2.4-3.5-.9-2.8-.9-4.5c0-1.6.3-3.1.8-4.5.6-1.4 1.3-2.6 2.3-3.5 1-1 2.1-1.8 3.4-2.3 1.3-.6 2.8-.9 4.2-.8 1.7 0 3.2.3 4.6 1s2.6 1.6 3.5 2.7c1 1.1 1.7 2.5 2.1 4.1.5 1.6.6 3.3.4 5.1h-15.9zm-16.9-8.3c-1.2 0-2.3.4-3.3 1.2s-1.6 1.9-1.9 3.4h10.4c-.3-1.5-.9-2.6-1.8-3.4-.8-.8-2-1.2-3.4-1.2zm-5.3 8.3c.2 1.6.9 2.8 1.9 3.6s2.3 1.2 3.9 1.2c2 0 3.4-.7 4.2-2h5.6c-.6 2.1-1.8 3.8-3.5 4.9s-3.8 1.7-6.2 1.7c-1.6 0-3-.3-4.4-.8-1.3-.5-2.5-1.3-3.5-2.3s-1.8-2.2-2.4-3.5-.9-2.8-.9-4.5c0-1.6.3-3.1.8-4.5.6-1.4 1.3-2.6 2.3-3.5 1-1 2.1-1.8 3.4-2.3 1.3-.6 2.8-.9 4.2-.8 1.7 0 3.2.3 4.6 1s2.6 1.6 3.5 2.7c1 1.1 1.7 2.5 2.1 4.1.5 1.6.6 3.3.4 5.1h-16zm-8 9.3c-2.6 0-4.6-.7-5.9-2.1-1.4-1.4-2-3.6-2-6.4v-8.6h-2.8v-4.5h12.5v4.4h-4.6v8.7c0 1.4.3 2.4.8 3 .6.6 1.4.9 2.5.9h.8c.3 0 .5-.1.8-.1v4.4c-.3.1-.6.1-1 .2s-.8.1-1.1.1zm-21.5-17.6c-1.2 0-2.3.4-3.3 1.2s-1.6 1.9-1.9 3.4h10.4c-.3-1.5-.9-2.6-1.8-3.4s-2-1.2-3.4-1.2zm-5.4 8.3c.2 1.6.9 2.8 1.9 3.6s2.3 1.2 3.9 1.2c2 0 3.4-.7 4.2-2h5.6c-.6 2.1-1.8 3.8-3.5 4.9s-3.8 1.7-6.3 1.7c-1.6 0-3-.3-4.4-.8-1.3-.5-2.5-1.3-3.6-2.3-1-1-1.8-2.2-2.4-3.5s-.9-2.8-.9-4.5c0-1.6.3-3.1.8-4.5.6-1.4 1.3-2.6 2.3-3.5 1-1 2.1-1.8 3.4-2.3 1.3-.6 2.8-.9 4.2-.8 1.7 0 3.2.3 4.6 1 1.4.6 2.6 1.6 3.5 2.7 1 1.1 1.7 2.5 2.1 4.1.5 1.6.6 3.3.4 5.1h-15.8zm-25.7-3.3v12.3h5.4v-12.5c0-1.2.4-2.2 1.2-2.9s1.8-1.1 3-1.1c.9 0 1.6.2 2.1.5s.9.7 1.2 1.1.5.9.5 1.3c.1.5.1.8.1 1.1v12.5h5.4v-12.3c0-1.4-.2-2.7-.6-3.8s-1-2.1-1.9-3c-.8-.8-1.8-1.5-3-2s-2.5-.7-4-.7-2.8.2-3.9.7-2.2 1.1-3 2-1.5 1.9-1.9 3c-.4 1.2-.6 2.4-.6 3.8zm-11.8 8.1c.7 0 1.5-.1 2.1-.4.7-.3 1.3-.7 1.8-1.3.5-.5.9-1.2 1.2-2s.4-1.7.4-2.7-.1-1.9-.4-2.8c-.3-.8-.7-1.5-1.2-2.1-1-1.1-2.4-1.8-3.9-1.8s-2.9.6-3.9 1.8c-.5.6-.9 1.3-1.2 2.1s-.4 1.7-.4 2.8c0 1 .1 1.9.4 2.7s.7 1.5 1.2 2 1.1 1 1.8 1.3c.6.3 1.4.4 2.1.4zm0 4.7c-2.9 0-5.6-1.1-7.6-3.1-1-1-1.8-2.2-2.4-3.5s-.9-2.8-.9-4.5c0-1.6.3-3.1.9-4.5s1.4-2.6 2.4-3.5c1-1 2.1-1.8 3.4-2.3 1.3-.6 2.7-.9 4.2-.8 1.5 0 2.9.3 4.2.8 1.3.6 2.5 1.3 3.4 2.3 1 1 1.8 2.2 2.4 3.6s.9 2.9.9 4.5-.3 3.1-.9 4.5c-.6 1.3-1.4 2.5-2.4 3.5-2 1.8-4.8 3-7.6 3zm-12.2-12.8c0-1.4-.2-2.7-.6-3.8s-1-2.1-1.9-3c-.8-.8-1.8-1.5-3-2s-2.5-.7-4-.7c-1.4 0-2.7.3-3.8.8s-2.1 1.3-2.9 2.2c-.8-.9-1.8-1.7-2.9-2.2s-2.4-.8-3.9-.8-2.8.2-4 .7-2.2 1.1-3 2-1.5 1.9-1.9 3c-.5 1.2-.7 2.4-.7 3.8v1.4h5.4v-1.5c0-1.2.4-2.2 1.1-2.9.8-.7 1.8-1.1 3-1.1.9 0 1.6.2 2.1.5s.9.7 1.2 1.1.4.9.5 1.3c.1.5.1.8.1 1.1v12.4h5.6v-12.5c0-1.2.4-2.2 1.2-2.9s1.8-1.1 3-1.1c.9 0 1.6.2 2.1.5s.9.7 1.2 1.1.5.9.5 1.3c.1.5.1.8.1 1.1v12.5h5.4c.1 0 .1-12.3.1-12.3zm68.6-15h5.2v5.2z" fill="#fff" mask="url(#a)" transform="translate(5.377 .27)"/><path d="m5.4 27.2h5.4v-5.4h-5.4z" fill="#f261d4" mask="url(#b)"/><path d="m0 21.8h5.4v-5.4h-5.4z" fill="#40c4ff" mask="url(#c)"/><path d="m6.8 41.6h-1.1l-4.6-7v7h-1.1v-8.6h1.2l4.6 7v-7h1zm6.8-3.9c-.1-.5-.4-.9-.8-1.3-.2-.2-.4-.3-.6-.4-.4-.2-.9-.2-1.3 0-.2.1-.4.2-.6.3-.3.3-.4.5-.6.7-.1.2-.2.5-.3.7zm1 1.9c-.2.7-.6 1.2-1.1 1.6s-1.2.6-1.9.6c-.5 0-.9-.1-1.3-.3s-.7-.4-1-.7-.5-.7-.7-1.1-.3-.9-.3-1.3c0-.5.1-.9.3-1.3.1-.4.4-.8.6-1.1.3-.3.6-.5 1-.7s.8-.3 1.3-.3c.8 0 1.7.4 2.2 1 .3.3.5.7.7 1.1s.3 1 .3 1.5h-5.3c0 .3.1.6.3.9.1.3.3.5.5.7.4.4.9.6 1.4.6s.8-.1 1.2-.3c.3-.2.6-.5.7-.9zm6.8-.6c0 .4-.1.8-.2 1.1s-.3.6-.6.8c-.2.2-.5.4-.9.6-.3.1-.7.2-1.1.2s-.7-.1-1.1-.2c-.6-.3-1.2-.8-1.4-1.4 0-.3-.1-.7-.1-1.1v-5.2h1v1.4h4.3v1h-4.3v2.8c0 .2 0 .5.1.7s.2.4.3.5.3.3.5.3c.2.1.4.1.7.1.5 0 .9-.2 1.2-.5s.5-.7.5-1.2v-.6h1c.1.1.1.7.1.7zm10.5-3.8v6.8c0 .4-.1.8-.2 1.1s-.3.6-.6.8c-.2.2-.5.4-.9.5-.3.1-.7.2-1 .2s-.7 0-.9-.1c-.3-.1-.5-.2-.8-.4-.2-.2-.4-.4-.6-.7s-.3-.6-.3-.9h1.1c.1.3.3.6.6.8s.6.3 1 .3c.5 0 .9-.2 1.2-.5s.4-.7.4-1.2v-1c-.4.4-.9.6-1.6.6-.4 0-.7-.1-1-.2-.6-.2-1.2-.7-1.4-1.4-.1-.3-.2-.7-.2-1.1v-3.9h1v4.1c0 .5.1.9.4 1.2s.7.5 1.2.5.9-.2 1.2-.5.4-.7.4-1.2v-3.9c-.1.1 1 .1 1 .1zm4.5 5.5c.3 0 .6-.1.8-.2s.5-.3.7-.5.4-.5.5-.8.2-.6.2-.9-.1-.6-.2-.9c-.2-.6-.6-1-1.2-1.3-.3-.1-.5-.1-.8-.1s-.6.1-.8.2c-.3.1-.5.3-.7.5s-.3.5-.5.8c-.1.3-.2.6-.2.9s.1.6.2.9.3.5.5.8c.2.2.4.4.7.5.2.1.5.1.8.1zm0-5.7c.5 0 .9.1 1.3.3s.7.4 1 .7.5.7.7 1.1.2.8.2 1.3c0 .9-.3 1.7-.9 2.4-.6.6-1.4 1-2.3 1-.5 0-.9-.1-1.3-.3s-.7-.4-1-.7c-.6-.6-.9-1.5-.9-2.4s.3-1.7.9-2.4c.3-.3.6-.5 1-.7s.8-.3 1.3-.3zm9.8 6.6h-1v-.7c-.2.3-.5.5-.8.6-.3.2-.7.2-1.1.2s-.7-.1-1-.2-.6-.3-.8-.6c-.2-.2-.4-.5-.5-.8-.1-.4-.2-.7-.2-1.1v-3.8h1v3.9c0 .5.1.9.4 1.2s.7.5 1.2.5c.2 0 .4 0 .7-.1.2-.1.4-.2.5-.3.3-.3.5-.7.5-1.2v-3.9h1.1zm7.2-3.4h-1v-.5c0-.5-.1-.9-.4-1.2s-.7-.5-1.2-.5c-.2 0-.5 0-.7.1-.4.2-.7.5-.9.9-.1.2-.1.4-.1.7v3.9h-1.1v-6.4h1v.7c.2-.3.5-.5.8-.6.3-.2.7-.2 1.1-.2s.7.1 1 .2.6.3.8.6c.2.2.4.5.5.9.1.3.2.7.2 1.1zm10.4 1.8 1.4-4.8h1.1l-1.9 6.4h-1.1l-1.4-4.9-1.4 4.9h-1.1l-1.9-6.4h1.1l1.4 4.8 1.4-4.8h1.1zm8.3-2.3c-.1-.5-.4-.9-.8-1.3-.2-.2-.4-.3-.6-.4-.4-.2-.9-.2-1.3 0-.2.1-.4.2-.6.3-.2.2-.4.3-.5.5s-.2.5-.3.7zm1 1.9c-.2.7-.6 1.2-1.1 1.6s-1.2.6-1.9.6c-.5 0-.9-.1-1.3-.3s-.7-.4-1-.7-.5-.7-.7-1.1-.3-.9-.3-1.3c0-.5.1-.9.3-1.3.3-.8.9-1.4 1.7-1.8.4-.2.8-.3 1.3-.3.8 0 1.7.4 2.2 1 .3.3.5.7.7 1.1s.3 1 .3 1.5h-5.4c0 .6.3 1.1.8 1.6.4.4.9.6 1.4.6s.8-.1 1.2-.3c.3-.2.6-.5.7-.9zm1.4 2h1.1v-9.2h-1.1zm2.9 0h1.1v-9.2h-1.1zm8.3 0h-1v-3.9c0-.5-.1-.9-.4-1.2-.3-.4-.7-.5-1.2-.5-.2 0-.5 0-.7.1-.4.2-.7.5-.9.9-.1.2-.1.4-.1.7v3.9h-1.1v-6.4h1v.7c.2-.3.5-.5.8-.6.3-.2.7-.2 1.1-.2s.7.1 1 .2.6.3.8.6c.2.2.4.5.5.9.1.3.2.7.2 1.1zm6.6-3.9c-.1-.5-.4-.9-.8-1.3-.2-.2-.4-.3-.6-.4-.4-.2-.9-.2-1.3 0-.2.1-.4.2-.6.3-.2.2-.4.3-.5.5s-.3.5-.3.7h4.1zm1 1.9c-.2.7-.6 1.2-1.1 1.6s-1.2.6-1.9.6c-.5 0-.9-.1-1.3-.3s-.7-.4-1-.7-.5-.7-.7-1.1-.3-.9-.3-1.3c0-.5.1-.9.3-1.3.3-.8.9-1.4 1.7-1.8.4-.2.8-.3 1.3-.3.8 0 1.7.4 2.2 1 .3.3.5.7.7 1.1s.3 1 .3 1.5h-5.4c0 .6.3 1.1.8 1.6.4.4.9.6 1.4.6s.8-.1 1.2-.3c.3-.2.6-.5.7-.9zm6.4 0c0 .3-.1.6-.2.9s-.3.5-.5.7-.5.3-.8.4-.7.1-1.1.1-.7 0-1.1-.1c-.3-.1-.6-.2-.9-.4-.2-.2-.4-.4-.6-.7s-.3-.6-.3-.9h1.1c.1.4.3.7.6.9s.7.3 1.2.3.9-.1 1.2-.3.4-.5.4-.7c0-.1 0-.2-.1-.3 0-.1-.1-.2-.2-.3-.2-.1-.3-.2-.5-.2-.3-.1-.6-.1-.9-.2-.4-.1-.7-.1-1-.2s-.5-.2-.8-.3c-.2-.1-.4-.3-.5-.5s-.2-.5-.2-.8c0-.2.1-.5.1-.7.1-.2.3-.4.5-.6s.5-.3.8-.4c.4-.1.7-.2 1.1-.2.7 0 1.3.2 1.8.5.5.4.7.8.8 1.5h-1.1c-.1-.3-.2-.6-.5-.8s-.6-.3-1-.3-.8.1-1 .3-.4.4-.4.6c0 .1 0 .2.1.3s.1.1.3.2c.1.1.3.1.5.2s.5.1.8.1c.4.1.7.1 1 .2s.6.2.8.3.4.3.6.5c-.1.3 0 .6 0 .9zm6.2 0c0 .3-.1.6-.2.9s-.3.5-.5.7c-.3.2-.5.3-.8.4s-.7.1-1.1.1-.7 0-1.1-.1c-.3-.1-.6-.2-.9-.4-.2-.2-.4-.4-.6-.7s-.3-.6-.3-.9h1.1c.1.4.3.7.6.9s.7.3 1.2.3.9-.1 1.2-.3.4-.5.4-.7c0-.1 0-.2-.1-.3 0-.1-.1-.2-.2-.3-.2-.1-.3-.2-.5-.2-.3-.1-.6-.1-.9-.2-.4-.1-.7-.1-1-.2s-.5-.2-.8-.3c-.2-.1-.4-.3-.5-.5s-.2-.5-.2-.8c0-.2.1-.5.1-.7.1-.2.3-.4.5-.6s.5-.3.8-.4c.4-.1.7-.2 1.1-.2.7 0 1.3.2 1.8.5.5.4.7.8.8 1.5h-1.1c-.1-.3-.2-.6-.5-.8s-.6-.3-1-.3-.8.1-1 .3-.4.4-.4.6c0 .1 0 .2.1.3s.1.1.3.2c.1.1.3.1.5.2s.5.1.8.1c.4.1.7.1 1 .2s.6.2.8.3.4.3.6.5c-.1.3 0 .6 0 .9zm4.7-6.6v.8h-1.5v4.6h-.9v-4.6h-1.6v-.8zm6.1 5.4h-.9v-3.9l-1.4 3.9h-.9l-1.4-3.9v3.9h-.9v-5.4h1.2l1.6 4.4 1.6-4.4h1.1z" fill="#fff" mask="url(#d)"/></g></svg>