<svg height="45" viewBox="0 0 161 45" width="161" xmlns="http://www.w3.org/2000/svg" xmlns:xlink="http://www.w3.org/1999/xlink"><mask id="a" fill="#fff"><path d="m.07.014h155.4v27.728h-155.4z" fill="#fff" fill-rule="evenodd"/></mask><mask id="b" fill="#fff"><path d="m0 44.986h160.847v-44.703h-160.847z" fill="#fff" fill-rule="evenodd"/></mask><g fill="none" fill-rule="evenodd"><path d="m144.742 9.999c-1.238 0-2.337.399-3.3 1.197-.962.797-1.61 1.925-1.94 3.383h10.438c-.275-1.485-.867-2.62-1.774-3.404-.908-.784-2.049-1.176-3.424-1.176zm-5.363 8.294c.248 1.623.88 2.833 1.897 3.63 1.018.799 2.311 1.197 3.879 1.197 2.007 0 3.41-.66 4.207-1.98h5.57c-.634 2.145-1.809 3.782-3.528 4.91-1.72 1.128-3.802 1.692-6.25 1.692-1.567 0-3.025-.275-4.372-.825a10.989 10.989 0 0 1 -3.548-2.311 10.748 10.748 0 0 1 -2.393-3.507c-.577-1.348-.866-2.834-.866-4.456 0-1.596.282-3.082.846-4.457.563-1.376 1.327-2.558 2.29-3.549a10.445 10.445 0 0 1 3.423-2.331 10.594 10.594 0 0 1 4.208-.846c1.678 0 3.21.33 4.6.99a10.383 10.383 0 0 1 3.527 2.704c.962 1.14 1.67 2.496 2.124 4.063.454 1.569.585 3.26.392 5.076h-16.005zm-16.868-8.294c-1.238 0-2.337.399-3.3 1.197-.963.797-1.61 1.925-1.94 3.383h10.438c-.275-1.485-.867-2.62-1.775-3.404-.907-.784-2.048-1.176-3.423-1.176zm-5.363 8.294c.247 1.623.88 2.833 1.897 3.63 1.018.799 2.311 1.197 3.879 1.197 2.007 0 3.41-.66 4.207-1.98h5.57c-.634 2.145-1.809 3.782-3.528 4.91-1.72 1.128-3.802 1.692-6.25 1.692-1.567 0-3.025-.275-4.373-.825a10.995 10.995 0 0 1 -3.547-2.311 10.757 10.757 0 0 1 -2.393-3.507c-.577-1.348-.866-2.834-.866-4.456 0-1.596.282-3.082.845-4.457.564-1.376 1.327-2.558 2.29-3.549a10.445 10.445 0 0 1 3.424-2.331 10.596 10.596 0 0 1 4.208-.846c1.677 0 3.21.33 4.6.99a10.372 10.372 0 0 1 3.526 2.704c.963 1.14 1.671 2.496 2.125 4.063.454 1.569.585 3.26.392 5.076zm-8 9.283c-2.584 0-4.557-.715-5.919-2.145-1.36-1.43-2.042-3.576-2.042-6.437v-8.624h-2.763v-4.374h12.581v4.374h-4.62v8.665c0 1.376.275 2.38.825 3.013.55.632 1.39.949 2.517.949.247 0 .501-.015.762-.041.262-.028.516-.07.764-.124v4.497c-.303.055-.64.11-1.011.165a7.424 7.424 0 0 1 -1.093.082zm-21.488-17.576c-1.238 0-2.337.399-3.3 1.197-.962.797-1.609 1.925-1.939 3.383h10.437c-.275-1.485-.867-2.62-1.774-3.404-.907-.785-2.049-1.176-3.424-1.176zm-5.363 8.294c.248 1.623.88 2.833 1.898 3.63 1.018.799 2.31 1.197 3.878 1.197 2.008 0 3.41-.66 4.207-1.98h5.57c-.633 2.145-1.808 3.782-3.528 4.91-1.719 1.128-3.801 1.692-6.25 1.692-1.566 0-3.024-.275-4.372-.825a10.995 10.995 0 0 1 -3.548-2.311 10.757 10.757 0 0 1 -2.393-3.507c-.577-1.348-.866-2.834-.866-4.456 0-1.596.282-3.082.846-4.457.564-1.376 1.327-2.558 2.29-3.549a10.438 10.438 0 0 1 3.423-2.331 10.596 10.596 0 0 1 4.208-.846c1.678 0 3.21.33 4.6.99 1.389.66 2.564 1.562 3.527 2.704.963 1.14 1.67 2.496 2.124 4.063.455 1.569.585 3.26.393 5.076zm-25.727-3.344v12.296h5.445v-12.42c0-1.21.385-2.187 1.155-2.93.77-.742 1.76-1.114 2.97-1.114.908 0 1.623.151 2.146.454.522.302.921.674 1.196 1.114s.453.887.536 1.341c.082.454.124.832.124 1.135v12.42h5.445v-12.296c0-1.403-.213-2.682-.64-3.838a8.438 8.438 0 0 0 -1.856-2.991c-.811-.84-1.801-1.493-2.97-1.96-1.168-.468-2.496-.702-3.98-.702-1.458 0-2.772.241-3.94.722a8.947 8.947 0 0 0 -3.012 2.002 8.87 8.87 0 0 0 -1.939 3.012c-.453 1.155-.68 2.406-.68 3.755zm-11.795 8.17c.743 0 1.45-.145 2.125-.434a4.96 4.96 0 0 0 1.753-1.258c.494-.55.887-1.225 1.176-2.022.288-.798.432-1.706.432-2.724 0-1.017-.144-1.939-.432-2.764-.29-.825-.682-1.52-1.176-2.084a5.13 5.13 0 0 0 -3.877-1.754 5.133 5.133 0 0 0 -3.878 1.754c-.495.564-.887 1.259-1.176 2.084-.29.825-.433 1.747-.433 2.764 0 1.018.144 1.926.433 2.724.289.797.68 1.471 1.176 2.022.494.55 1.08.97 1.752 1.258a5.338 5.338 0 0 0 2.125.433zm0 4.62a10.683 10.683 0 0 1 -7.631-3.135 11.07 11.07 0 0 1 -2.352-3.507c-.577-1.348-.867-2.834-.867-4.456 0-1.596.29-3.082.867-4.457.578-1.376 1.361-2.558 2.352-3.549.99-.99 2.138-1.767 3.444-2.331a10.45 10.45 0 0 1 4.187-.846c1.486 0 2.881.282 4.187.846a10.98 10.98 0 0 1 3.445 2.331c.99.99 1.774 2.173 2.351 3.55.578 1.374.867 2.86.867 4.456 0 1.622-.29 3.108-.867 4.456a11.07 11.07 0 0 1 -2.351 3.507 10.678 10.678 0 0 1 -7.632 3.136zm-12.156-12.79c0-1.403-.214-2.682-.64-3.838a8.463 8.463 0 0 0 -1.856-2.991c-.812-.84-1.802-1.493-2.97-1.96-1.17-.468-2.496-.702-3.981-.702-1.403 0-2.682.268-3.837.805a8.505 8.505 0 0 0 -2.93 2.207 8.14 8.14 0 0 0 -2.866-2.207c-1.14-.537-2.44-.805-3.898-.805s-2.778.241-3.96.722c-1.183.482-2.186 1.149-3.012 2.002a9.02 9.02 0 0 0 -1.919 3.013c-.454 1.155-.68 2.406-.68 3.755v1.403h5.444v-1.527c0-1.21.38-2.187 1.135-2.93.756-.742 1.753-1.114 2.99-1.114.909 0 1.623.151 2.146.454.522.302.915.674 1.176 1.114s.433.887.515 1.341c.083.454.124.832.124 1.135v12.42h5.445v-12.42c0-1.21.385-2.187 1.155-2.93.77-.742 1.76-1.114 2.97-1.114.908 0 1.623.151 2.146.454.522.302.92.674 1.196 1.114.275.44.454.887.537 1.341.082.454.123.832.123 1.135v12.42h5.446v-12.297zm68.569-14.936h5.197v5.199l-5.198-5.2z" fill="#9473eb" mask="url(#a)" transform="translate(5.376 .27)"/><path d="m5.445 27.515h5.446v-5.445h-5.446z" fill="#f261d4" mask="url(#b)"/><path d="m0 22.069h5.445v-5.446h-5.445z" fill="#40c4ff" mask="url(#b)"/><path d="m6.847 41.847h-1.166l-4.627-7.01v7.01h-1.054v-8.61h1.178l4.627 6.997v-6.998h1.042zm6.724-3.859a2.459 2.459 0 0 0 -.782-1.26 2.07 2.07 0 0 0 -.601-.353 1.9 1.9 0 0 0 -1.34-.006 2.1 2.1 0 0 0 -.608.341 2.434 2.434 0 0 0 -.496.546c-.145.215-.25.46-.316.732zm1.017 1.874c-.223.686-.596 1.214-1.116 1.582-.522.368-1.154.552-1.898.552-.464 0-.893-.087-1.29-.26a3.285 3.285 0 0 1 -1.036-.708 3.295 3.295 0 0 1 -.695-1.054 3.377 3.377 0 0 1 -.254-1.316c0-.463.085-.9.254-1.309a3.293 3.293 0 0 1 1.706-1.787 2.973 2.973 0 0 1 1.253-.266 3.115 3.115 0 0 1 2.239.968c.301.314.541.695.72 1.142.177.446.266.955.266 1.525h-5.371c.033.331.117.627.254.888.136.26.306.481.508.664a2.168 2.168 0 0 0 1.446.558c.455 0 .841-.104 1.16-.31.318-.207.564-.497.738-.87h1.116zm6.81-.558c0 .397-.066.759-.198 1.085-.133.327-.319.61-.559.85s-.525.426-.856.558c-.33.133-.69.199-1.079.199-.388 0-.748-.066-1.079-.199a2.519 2.519 0 0 1 -1.42-1.408 2.793 2.793 0 0 1 -.205-1.085v-5.211h1.042v1.364h4.317v1.006h-4.317v2.84c0 .24.04.464.118.67.078.207.192.385.34.534.15.149.325.265.528.348.203.082.428.124.676.124.496 0 .895-.157 1.197-.472.302-.314.453-.715.453-1.203v-.584h1.042zm10.457-3.847v6.862c0 .421-.068.796-.204 1.122a2.48 2.48 0 0 1 -.565.838c-.24.231-.523.407-.85.527-.326.12-.676.18-1.048.18-.339 0-.653-.047-.942-.142a2.534 2.534 0 0 1 -.782-.416 2.429 2.429 0 0 1 -.583-.664 2.546 2.546 0 0 1 -.323-.887h1.067c.116.347.302.616.558.806.257.19.592.286 1.005.286.496 0 .89-.151 1.179-.453.29-.302.434-.7.434-1.197v-.956c-.397.422-.935.633-1.613.633-.372 0-.721-.064-1.048-.192a2.471 2.471 0 0 1 -1.414-1.377 2.82 2.82 0 0 1 -.205-1.098v-3.872h1.042v3.872c0 .48.147.874.44 1.184.294.31.69.466 1.185.466.496 0 .89-.155 1.179-.466.29-.31.434-.705.434-1.184v-3.872zm4.503 5.571c.298 0 .577-.062.837-.186a2.275 2.275 0 0 0 1.154-1.253c.112-.29.168-.595.168-.918 0-.331-.056-.643-.168-.937a2.333 2.333 0 0 0 -1.154-1.278 1.871 1.871 0 0 0 -.837-.192c-.297 0-.577.064-.837.192s-.488.3-.682.515c-.195.215-.348.47-.46.763a2.61 2.61 0 0 0 -.167.937c0 .323.056.628.168.918.111.29.264.54.459.75.194.211.421.38.682.503.26.124.54.186.837.186zm0-5.732c.455 0 .879.089 1.272.267s.731.42 1.017.725c.285.306.51.664.676 1.074.165.41.248.846.248 1.309a3.406 3.406 0 0 1 -.924 2.351 3.112 3.112 0 0 1 -2.289.974 3.06 3.06 0 0 1 -1.265-.26 3.205 3.205 0 0 1 -1.017-.714 3.357 3.357 0 0 1 -.93-2.351 3.46 3.46 0 0 1 .93-2.383c.29-.305.628-.547 1.017-.725s.81-.267 1.265-.267zm9.874 6.551h-1.017v-.695c-.215.265-.48.472-.794.62-.314.15-.67.224-1.067.224-.388 0-.736-.066-1.042-.199a2.16 2.16 0 0 1 -.775-.558 2.42 2.42 0 0 1 -.478-.85 3.469 3.469 0 0 1 -.16-1.085v-3.847h1.041v3.896c0 .513.135.922.403 1.229.27.306.66.459 1.172.459.232 0 .45-.042.652-.124.202-.083.378-.199.527-.348a1.665 1.665 0 0 0 .484-1.191v-3.92h1.054v6.39zm7.145-3.412h-1.042v-.471c0-.497-.136-.904-.409-1.223-.273-.318-.657-.477-1.154-.477-.24 0-.463.043-.67.13a1.59 1.59 0 0 0 -.88.881 1.74 1.74 0 0 0 -.124.664v3.908h-1.055v-6.39h1.017v.695c.216-.265.482-.473.8-.627.319-.153.673-.23 1.061-.23a2.6 2.6 0 0 1 1.042.2c.306.132.565.318.776.558.21.24.37.525.477.856.108.33.161.695.161 1.092zm10.396 1.824 1.352-4.802h1.104l-1.91 6.39h-1.105l-1.364-4.887-1.365 4.888h-1.091l-1.91-6.39h1.104l1.364 4.802 1.365-4.802h1.09l1.366 4.802zm8.261-2.27a2.45 2.45 0 0 0 -.781-1.26 2.065 2.065 0 0 0 -.602-.354 1.9 1.9 0 0 0 -1.34-.006 2.1 2.1 0 0 0 -.608.341 2.448 2.448 0 0 0 -.496.546c-.144.215-.25.46-.316.732h4.143zm1.017 1.873c-.223.686-.595 1.214-1.116 1.582s-1.154.552-1.898.552c-.463 0-.893-.087-1.29-.26a3.28 3.28 0 0 1 -1.036-.708 3.29 3.29 0 0 1 -.695-1.054 3.377 3.377 0 0 1 -.254-1.316c0-.463.085-.9.254-1.309.17-.409.4-.765.689-1.067.29-.301.628-.541 1.017-.72a2.973 2.973 0 0 1 1.253-.266 3.117 3.117 0 0 1 2.239.968c.302.314.542.695.72 1.142.177.446.266.955.266 1.525h-5.371a2.349 2.349 0 0 0 .763 1.551 2.17 2.17 0 0 0 1.445.559c.455 0 .841-.104 1.16-.31.318-.207.564-.497.738-.87h1.116zm1.464 1.985h1.054v-9.231h-1.054zm2.915 0h1.055v-9.231h-1.055zm8.225 0h-1.043v-3.883c0-.497-.132-.904-.396-1.223-.265-.318-.654-.477-1.166-.477-.24 0-.464.043-.67.13a1.581 1.581 0 0 0 -.88.881 1.735 1.735 0 0 0 -.125.664v3.908h-1.054v-6.39h1.017v.695c.215-.265.481-.473.8-.627.318-.153.672-.23 1.06-.23.389 0 .736.067 1.043.2.305.132.564.318.775.558.21.24.37.525.477.856.108.33.162.695.162 1.092zm6.586-3.859a2.465 2.465 0 0 0 -.781-1.26 2.06 2.06 0 0 0 -.602-.353 1.902 1.902 0 0 0 -1.34-.006 2.1 2.1 0 0 0 -.607.341 2.435 2.435 0 0 0 -.497.546 2.26 2.26 0 0 0 -.316.732zm1.018 1.874c-.224.686-.596 1.214-1.117 1.582-.52.368-1.154.552-1.898.552-.463 0-.893-.087-1.29-.26a3.277 3.277 0 0 1 -1.035-.708 3.286 3.286 0 0 1 -.695-1.054 3.377 3.377 0 0 1 -.255-1.316c0-.463.085-.9.255-1.309a3.296 3.296 0 0 1 1.706-1.787 2.973 2.973 0 0 1 1.252-.266 3.115 3.115 0 0 1 2.239.968c.302.314.542.695.72 1.142.178.446.266.955.266 1.525h-5.37a2.349 2.349 0 0 0 .763 1.551 2.17 2.17 0 0 0 1.444.559c.455 0 .842-.104 1.16-.31.318-.207.565-.497.738-.87h1.117zm6.388.062c0 .322-.064.612-.192.868a1.863 1.863 0 0 1 -.54.652 2.618 2.618 0 0 1 -.831.416c-.323.099-.674.148-1.054.148-.39 0-.749-.049-1.08-.148-.33-.1-.62-.245-.868-.434-.248-.19-.45-.42-.608-.69a2.346 2.346 0 0 1 -.297-.911h1.066c.067.372.265.666.596.88.33.216.728.323 1.19.323.497 0 .887-.103 1.173-.31.285-.207.428-.45.428-.732a.977.977 0 0 0 -.05-.31.56.56 0 0 0 -.23-.273 1.948 1.948 0 0 0 -.527-.23 5.896 5.896 0 0 0 -.93-.18 10.353 10.353 0 0 1 -1.042-.204 2.723 2.723 0 0 1 -.781-.323 1.44 1.44 0 0 1 -.497-.515 1.53 1.53 0 0 1 -.173-.757c0-.231.05-.459.149-.682.1-.224.252-.426.458-.608.208-.182.468-.329.782-.44a3.341 3.341 0 0 1 1.117-.168c.744 0 1.347.176 1.81.527.464.352.728.842.794 1.47h-1.066c-.075-.347-.25-.605-.528-.775-.277-.17-.614-.254-1.01-.254-.422 0-.77.086-1.042.26-.273.174-.41.385-.41.633 0 .116.025.213.074.292.05.078.137.148.261.21.124.063.29.118.496.168.207.05.467.1.782.149.355.058.688.124.998.198.31.075.583.18.819.317.236.136.422.319.558.546.137.227.205.523.205.887zm6.24 0c0 .322-.065.612-.193.868a1.863 1.863 0 0 1 -.54.652 2.62 2.62 0 0 1 -.83.416c-.323.099-.675.148-1.055.148-.389 0-.748-.049-1.08-.148a2.69 2.69 0 0 1 -.867-.434c-.248-.19-.451-.42-.608-.69a2.35 2.35 0 0 1 -.298-.911h1.067c.066.372.265.666.595.88.33.216.728.323 1.191.323.496 0 .887-.103 1.172-.31.286-.207.428-.45.428-.732a.985.985 0 0 0 -.05-.31.562.562 0 0 0 -.229-.273 1.95 1.95 0 0 0 -.527-.23 5.902 5.902 0 0 0 -.93-.18 10.36 10.36 0 0 1 -1.042-.204 2.723 2.723 0 0 1 -.782-.323 1.44 1.44 0 0 1 -.496-.515 1.53 1.53 0 0 1 -.174-.757c0-.231.05-.459.15-.682.098-.224.252-.426.458-.608.207-.182.467-.329.782-.44a3.343 3.343 0 0 1 1.116-.168c.744 0 1.348.176 1.811.527.463.352.728.842.794 1.47h-1.067c-.074-.347-.25-.605-.527-.775s-.614-.254-1.01-.254c-.423 0-.77.086-1.043.26s-.41.385-.41.633c0 .116.026.213.075.292.05.078.136.148.26.21.125.063.29.118.497.168.206.05.467.1.781.149.356.058.689.124.999.198.31.075.583.18.819.317.235.136.421.319.558.546.136.227.205.523.205.887zm4.726-6.688v.807h-1.526v4.603h-.856v-4.603h-1.55v-.807zm6.016 5.41h-.856v-3.908l-1.439 3.908h-.868l-1.427-3.908v3.908h-.868v-5.41h1.153l1.576 4.355 1.588-4.355h1.14v5.41z" fill="#9473eb" mask="url(#b)"/></g></svg>