<!-- Generator: Adobe Illustrator 24.0.3, SVG Export Plug-In  -->
<svg version="1.1" xmlns="http://www.w3.org/2000/svg" xmlns:xlink="http://www.w3.org/1999/xlink" x="0px" y="0px" width="512px"
	 height="293.6px" viewBox="0 0 512 293.6" style="enable-background:new 0 0 512 293.6;" xml:space="preserve">
<style type="text/css">
	.st0{fill-rule:evenodd;clip-rule:evenodd;fill:#9473EB;}
	.st1{fill-rule:evenodd;clip-rule:evenodd;fill:#FFFFFF;filter:url(#Adobe_OpacityMaskFilter);}
	.st2{mask:url(#b_2_);fill-rule:evenodd;clip-rule:evenodd;fill:#F261D4;}
	.st3{fill-rule:evenodd;clip-rule:evenodd;fill:#FFFFFF;filter:url(#Adobe_OpacityMaskFilter_1_);}
	.st4{mask:url(#b_1_);fill-rule:evenodd;clip-rule:evenodd;fill:#40C4FF;}
	.st5{fill-rule:evenodd;clip-rule:evenodd;fill:#FFFFFF;filter:url(#Adobe_OpacityMaskFilter_2_);}
	.st6{mask:url(#b_7_);fill-rule:evenodd;clip-rule:evenodd;fill:#F261D4;}
	.st7{fill-rule:evenodd;clip-rule:evenodd;fill:#FFFFFF;filter:url(#Adobe_OpacityMaskFilter_3_);}
	.st8{mask:url(#b_6_);fill-rule:evenodd;clip-rule:evenodd;fill:#40C4FF;}
</style>
<defs>
</defs>
<g>
	<path class="st0" d="M512,127.9c0-18.9-2.9-36.1-8.6-51.7c-5.4-15-13.9-28.8-25-40.3c-10.9-11.3-24.3-20.1-40-26.4
		C422.6,3.2,404.7,0,384.7,0c-18.9,0-36.1,3.6-51.7,10.8c-15.2,6.9-28.6,17.1-39.5,29.7c-10.5-12.7-23.7-22.8-38.6-29.7
		C239.5,3.6,222,0,202.4,0S164.9,3.2,149,9.7c-15.9,6.5-29.5,15.5-40.6,27c-11.2,11.7-20,25.5-25.9,40.6
		c-6.1,15.6-9.2,32.4-9.2,50.6v18.9h73.4v-20.6c0-16.3,5.1-29.5,15.3-39.5c10.2-10,23.6-15,40.3-15c12.2,0,21.9,2,28.9,6.1
		c7,4.1,12.3,9.1,15.8,15s5.8,12,6.9,18.1c1.1,6.1,1.7,11.2,1.7,15.3v167.4h73.4V126.2c0-16.3,5.2-29.5,15.6-39.5
		c10.4-10,23.7-15,40-15c12.2,0,21.9,2,28.9,6.1c7,4.1,12.4,9.1,16.1,15c3.7,5.9,6.1,12,7.2,18.1c1.1,6.1,1.7,11.2,1.7,15.3v167.4
		H512L512,127.9L512,127.9z"/>
	<defs>
		<filter id="Adobe_OpacityMaskFilter" filterUnits="userSpaceOnUse" x="73.4" y="220.2" width="73.4" height="73.4">
			<feColorMatrix  type="matrix" values="1 0 0 0 0  0 1 0 0 0  0 0 1 0 0  0 0 0 1 0"/>
		</filter>
	</defs>
	<mask maskUnits="userSpaceOnUse" x="73.4" y="220.2" width="73.4" height="73.4" id="b_2_">
		<path class="st1" d="M0,529h2167.5V-73.4H0V529z"/>
	</mask>
	<path class="st2" d="M73.4,293.6h73.4v-73.4H73.4L73.4,293.6z"/>
	<defs>
		<filter id="Adobe_OpacityMaskFilter_1_" filterUnits="userSpaceOnUse" x="0" y="146.8" width="73.4" height="73.4">
			<feColorMatrix  type="matrix" values="1 0 0 0 0  0 1 0 0 0  0 0 1 0 0  0 0 0 1 0"/>
		</filter>
	</defs>
	<mask maskUnits="userSpaceOnUse" x="0" y="146.8" width="73.4" height="73.4" id="b_1_">
		<path class="st3" d="M0,529h2167.5V-73.4H0V529z"/>
	</mask>
	<path class="st4" d="M0,220.2h73.4v-73.4H0V220.2z"/>
</g>
</svg>
