<?xml version="1.0" encoding="UTF-8"?>
<svg width="157px" height="50px" viewBox="0 0 157 50" version="1.1" xmlns="http://www.w3.org/2000/svg" xmlns:xlink="http://www.w3.org/1999/xlink">
    <!-- Generator: Sketch 61.2 (89653) - https://sketch.com -->
    <title>elem / button / google play@2x</title>
    <desc>Created with Sketch.</desc>
    <defs>
        <linearGradient x1="32.0715648%" y1="-6.0957265%" x2="54.461911%" y2="92.1559829%" id="linearGradient-1">
            <stop stop-color="#006884" offset="0%"></stop>
            <stop stop-color="#8AD1D0" offset="100%"></stop>
        </linearGradient>
        <linearGradient x1="-7.52792208%" y1="30.2358998%" x2="91.537013%" y2="70.9239374%" id="linearGradient-2">
            <stop stop-color="#24BBB6" offset="0%"></stop>
            <stop stop-color="#DBE692" offset="100%"></stop>
        </linearGradient>
        <linearGradient x1="49.9404255%" y1="105.754795%" x2="49.9404255%" y2="-3.12739726%" id="linearGradient-3">
            <stop stop-color="#FCC072" offset="0%"></stop>
            <stop stop-color="#F58A5B" offset="100%"></stop>
        </linearGradient>
        <linearGradient x1="11.1493421%" y1="89.5089855%" x2="90.4368421%" y2="27.9281683%" id="linearGradient-4">
            <stop stop-color="#712B8F" offset="0%"></stop>
            <stop stop-color="#EA1D27" offset="100%"></stop>
        </linearGradient>
    </defs>
    <g id="Done" stroke="none" stroke-width="1" fill="none" fill-rule="evenodd">
        <g id="Monetee-employee" transform="translate(-387.000000, -524.000000)">
            <g id="Group-20" transform="translate(215.000000, -396.000000)">
                <g id="Group-16" transform="translate(0.000000, 674.000000)">
                    <g id="Group-13" transform="translate(1.000000, 246.000000)">
                        <g id="elem-/-button-/-google-play" transform="translate(171.250000, 0.000000)">
                            <g id="google-play-badge">
                                <path d="M151.829268,49.3902439 L5.48780488,49.3902439 C2.80487805,49.3902439 0.609756098,47.195122 0.609756098,44.5121951 L0.609756098,5.48780488 C0.609756098,2.80487805 2.80487805,0.609756098 5.48780488,0.609756098 L151.829268,0.609756098 C154.512195,0.609756098 156.707317,2.80487805 156.707317,5.48780488 L156.707317,44.5121951 C156.707317,47.195122 154.512195,49.3902439 151.829268,49.3902439 Z" id="Path" fill="#000000" fill-rule="nonzero"></path>
                                <path d="M12.5609756,24.5121951 L12.5609756,11.7073171 C12.5609756,10.9756098 13.1707317,10.3658537 13.7804878,10.3658537 C14.3902439,10.3658537 14.6341463,10.4878049 15,10.7317073 L38.5365854,23.6585366 C39.0243902,23.902439 39.2682927,24.2682927 39.2682927,24.6341463 C39.2682927,25 39.0243902,25.3658537 38.5365854,25.6097561 L15,38.5365854 C14.7560976,38.6585366 14.3902439,38.902439 13.7804878,38.902439 C13.1707317,38.902439 12.5609756,38.2926829 12.5609756,37.5609756 L12.5609756,24.5121951 Z" id="Path" fill="url(#linearGradient-1)"></path>
                                <path d="M27.804878,24.6341463 L13.5365854,10.3658537 C13.6585366,10.3658537 13.6585366,10.3658537 13.7804878,10.3658537 C14.3902439,10.3658537 14.6341463,10.4878049 15,10.7317073 L32.3170732,20.2439024 L27.804878,24.6341463 Z" id="Path" fill="url(#linearGradient-2)"></path>
                                <path d="M32.195122,28.902439 L27.804878,24.5121951 L32.3170732,20 L38.5365854,23.4146341 C39.0243902,23.6585366 39.2682927,24.0243902 39.2682927,24.3902439 C39.2682927,24.7560976 39.0243902,25.1219512 38.5365854,25.3658537 L32.195122,28.902439 Z" id="Path" fill="url(#linearGradient-3)"></path>
                                <path d="M13.6585366,38.6585366 L13.6585366,38.6585366 L27.804878,24.5121951 L32.195122,28.902439 L15,38.2926829 C14.6341463,38.5365854 14.3902439,38.6585366 13.6585366,38.6585366 C13.7804878,38.6585366 13.7804878,38.6585366 13.6585366,38.6585366 Z" id="Path" fill="url(#linearGradient-4)"></path>
                                <path d="M87.3170732,41.9512195 C86.7073171,41.4634146 86.2195122,40.6097561 85.9756098,40.1219512 L87.9268293,39.2682927 C88.0487805,39.5121951 88.2926829,39.8780488 88.5365854,40.2439024 C89.0243902,40.7317073 89.7560976,41.2195122 90.4878049,41.2195122 C91.2195122,41.2195122 92.0731707,40.8536585 92.5609756,40.2439024 C92.9268293,39.6341463 93.1707317,39.0243902 93.1707317,38.1707317 L93.1707317,37.4390244 C91.7073171,39.2682927 88.6585366,39.0243902 86.9512195,37.0731707 C85.1219512,35.1219512 85.1219512,31.8292683 86.9512195,29.8780488 C88.7804878,28.0487805 91.4634146,27.804878 93.0487805,29.5121951 C93.0487805,29.5121951 93.0487805,29.5121951 93.0487805,29.5121951 L93.0487805,28.6585366 L95.1219512,28.6585366 L95.1219512,37.804878 C95.1219512,40.1219512 94.2682927,41.4634146 93.1707317,42.3170732 C92.4390244,42.9268293 91.3414634,43.1707317 90.3658537,43.1707317 C89.2682927,43.0487805 88.1707317,42.6829268 87.3170732,41.9512195 L87.3170732,41.9512195 Z M138.414634,42.4390244 L138.414634,42.4390244 L140.487805,37.5609756 L136.829268,29.1463415 L138.902439,29.1463415 L141.463415,35.1219512 L144.02439,29.1463415 L146.097561,29.1463415 L140.487805,42.4390244 L138.414634,42.4390244 L138.414634,42.4390244 Z M128.536585,37.804878 L128.536585,37.804878 C127.926829,37.195122 127.682927,36.3414634 127.682927,35.4878049 C127.682927,34.7560976 127.926829,34.0243902 128.414634,33.5365854 C129.268293,32.6829268 130.487805,32.3170732 131.829268,32.3170732 C132.682927,32.3170732 133.414634,32.4390244 134.02439,32.804878 C134.02439,31.3414634 132.804878,30.7317073 131.829268,30.7317073 C130.97561,30.7317073 130.121951,31.2195122 129.756098,32.0731707 L127.926829,31.3414634 C128.292683,30.4878049 129.268293,28.902439 131.707317,28.902439 C132.926829,28.902439 134.146341,29.2682927 134.878049,30.1219512 C135.609756,30.9756098 135.853659,31.9512195 135.853659,33.2926829 L135.853659,38.4146341 L133.780488,38.4146341 L133.780488,37.5609756 C133.536585,37.9268293 133.04878,38.1707317 132.682927,38.4146341 C132.195122,38.6585366 131.585366,38.7804878 130.97561,38.7804878 C130.243902,38.6585366 129.146341,38.4146341 128.536585,37.804878 L128.536585,37.804878 Z M63.5365854,33.4146341 L63.5365854,33.4146341 C63.5365854,30.9756098 65.3658537,28.2926829 68.6585366,28.2926829 C71.8292683,28.2926829 73.7804878,30.9756098 73.7804878,33.4146341 C73.7804878,35.8536585 71.9512195,38.5365854 68.6585366,38.5365854 C65.3658537,38.5365854 63.5365854,35.8536585 63.5365854,33.4146341 L63.5365854,33.4146341 Z M74.5121951,33.4146341 L74.5121951,33.4146341 C74.5121951,30.9756098 76.3414634,28.2926829 79.6341463,28.2926829 C82.804878,28.2926829 84.7560976,30.9756098 84.7560976,33.4146341 C84.7560976,35.8536585 82.9268293,38.5365854 79.6341463,38.5365854 C76.4634146,38.5365854 74.5121951,35.8536585 74.5121951,33.4146341 L74.5121951,33.4146341 Z M49.7560976,36.097561 L49.7560976,36.097561 C46.7073171,33.0487805 46.8292683,28.0487805 49.8780488,24.8780488 C51.4634146,23.2926829 53.4146341,22.5609756 55.4878049,22.5609756 C57.4390244,22.5609756 59.3902439,23.2926829 60.8536585,24.7560976 L59.3902439,26.3414634 C57.195122,24.1463415 53.6585366,24.2682927 51.5853659,26.4634146 C49.3902439,28.7804878 49.3902439,32.3170732 51.5853659,34.6341463 C53.7804878,36.9512195 57.4390244,37.0731707 59.6341463,34.7560976 C60.3658537,34.0243902 60.6097561,33.0487805 60.7317073,32.0731707 L55.6097561,32.0731707 L55.6097561,29.8780488 L62.804878,29.8780488 C62.9268293,30.3658537 62.9268293,30.9756098 62.9268293,31.5853659 C62.9268293,33.4146341 62.195122,35.2439024 60.9756098,36.4634146 C59.6341463,37.804878 57.6829268,38.5365854 55.7317073,38.5365854 C53.5365854,38.4146341 51.3414634,37.6829268 49.7560976,36.097561 L49.7560976,36.097561 Z M101.341463,36.9512195 L101.341463,36.9512195 C99.5121951,35 99.5121951,31.7073171 101.341463,29.6341463 C103.170732,27.6829268 106.219512,27.6829268 107.926829,29.6341463 C108.536585,30.2439024 108.902439,31.097561 109.268293,31.9512195 L102.560976,34.7560976 C102.926829,35.6097561 103.780488,36.3414634 105,36.3414634 C106.097561,36.3414634 106.829268,35.9756098 107.560976,34.8780488 L109.390244,36.097561 L109.390244,36.097561 C109.146341,36.3414634 108.902439,36.5853659 108.780488,36.8292683 C106.707317,38.902439 103.170732,38.902439 101.341463,36.9512195 L101.341463,36.9512195 Z M114.02439,38.4146341 L114.02439,38.4146341 L114.02439,24.8780488 L118.414634,24.8780488 C120.97561,24.8780488 123.04878,26.7073171 123.04878,28.902439 C123.04878,31.097561 121.219512,32.9268293 118.902439,32.9268293 L116.219512,32.9268293 L116.219512,38.2926829 L114.02439,38.2926829 L114.02439,38.4146341 Z M124.268293,38.4146341 L124.268293,38.4146341 L124.268293,24.8780488 L126.341463,24.8780488 L126.341463,38.4146341 L124.268293,38.4146341 L124.268293,38.4146341 Z M96.7073171,38.1707317 L96.7073171,38.1707317 L96.7073171,23.0487805 L98.902439,23.0487805 L98.902439,38.1707317 L96.7073171,38.1707317 L96.7073171,38.1707317 Z M133.902439,34.3902439 L133.902439,34.3902439 C133.414634,34.0243902 132.682927,33.902439 131.95122,33.902439 C130.487805,33.902439 129.634146,34.6341463 129.634146,35.4878049 C129.634146,36.3414634 130.487805,36.8292683 131.341463,36.8292683 C132.560976,36.8292683 133.902439,35.8536585 133.902439,34.3902439 L133.902439,34.3902439 Z M71.4634146,33.4146341 L71.4634146,33.4146341 C71.4634146,31.9512195 70.4878049,30.3658537 68.6585366,30.3658537 C66.8292683,30.3658537 65.8536585,31.9512195 65.8536585,33.4146341 C65.8536585,34.8780488 66.8292683,36.4634146 68.6585366,36.4634146 C70.3658537,36.4634146 71.4634146,34.8780488 71.4634146,33.4146341 L71.4634146,33.4146341 Z M82.4390244,33.4146341 L82.4390244,33.4146341 C82.4390244,31.9512195 81.4634146,30.3658537 79.6341463,30.3658537 C77.804878,30.3658537 76.8292683,31.9512195 76.8292683,33.4146341 C76.8292683,34.8780488 77.804878,36.4634146 79.6341463,36.4634146 C81.4634146,36.4634146 82.4390244,34.8780488 82.4390244,33.4146341 L82.4390244,33.4146341 Z M93.2926829,34.2682927 L93.2926829,34.2682927 C93.2926829,34.1463415 93.2926829,34.0243902 93.4146341,33.902439 C93.4146341,33.902439 93.4146341,33.902439 93.4146341,33.902439 C93.4146341,33.7804878 93.4146341,33.5365854 93.4146341,33.4146341 C93.4146341,33.2926829 93.4146341,33.0487805 93.4146341,32.9268293 C93.4146341,32.9268293 93.4146341,32.804878 93.4146341,32.804878 C93.4146341,32.6829268 93.2926829,32.4390244 93.2926829,32.3170732 C92.9268293,31.097561 91.8292683,30.2439024 90.7317073,30.2439024 C89.2682927,30.2439024 88.0487805,31.7073171 88.0487805,33.2926829 C88.0487805,35 89.2682927,36.3414634 90.8536585,36.3414634 C91.8292683,36.4634146 92.804878,35.6097561 93.2926829,34.2682927 L93.2926829,34.2682927 Z M102.195122,33.1707317 L102.195122,33.1707317 L106.707317,31.2195122 C106.219512,30.3658537 105.487805,30.1219512 104.878049,30.1219512 C103.04878,30.2439024 101.95122,32.195122 102.195122,33.1707317 L102.195122,33.1707317 Z M120.853659,29.0243902 L120.853659,29.0243902 C120.853659,27.804878 119.878049,26.9512195 118.536585,26.9512195 L116.097561,26.9512195 L116.097561,31.2195122 L118.658537,31.2195122 C119.878049,31.2195122 120.853659,30.2439024 120.853659,29.0243902 Z" id="Shape" fill="#FFFFFF"></path>
                                <polygon id="Path" fill="#FFFFFF" points="140 40 140 40 139.878049 40 139.878049 40 139.878049 39.8780488 139.878049 39.8780488 140 39.8780488 140 39.8780488 139.878049 39.8780488 139.878049 39.8780488 139.878049 40 139.878049 40"></polygon>
                                <polygon id="Path" fill="#FFFFFF" points="140 40 140 40 140 39.8780488 140 39.8780488 140 39.8780488 140 39.8780488 140 39.8780488 140 39.8780488 140 39.8780488 140 39.8780488 140 40"></polygon>
                                <polygon id="Path" fill="#FFFFFF" points="140 39.8780488 140 39.8780488 140 39.8780488 140 39.8780488 140 40 140 40 140 39.8780488"></polygon>
                                <polygon id="Path" fill="#FFFFFF" points="140 40 140 40 140 39.8780488 140 39.8780488 140 39.8780488 140 39.8780488 140 39.8780488 140 39.8780488 140 39.8780488 140 39.8780488 140 40"></polygon>
                                <polygon id="Path" fill="#FFFFFF" points="140.121951 39.8780488 140.121951 39.8780488 140.121951 39.8780488 140.121951 39.8780488 140.121951 39.8780488 140.121951 39.8780488 140.121951 39.8780488 140.121951 39.8780488 140.121951 40 140.121951 40"></polygon>
                                <polygon id="Path" fill="#FFFFFF" points="140.121951 40 140.121951 40 140.121951 39.8780488 140.121951 39.8780488 140.121951 40"></polygon>
                                <path d="M140.121951,40 L140.121951,40 L140.121951,40 L140.121951,40 L140.121951,40 L140.121951,40 C140.121951,40 140.121951,40 140.121951,40 C140.121951,40 140.121951,40 140.121951,40 L140.121951,40 C140.121951,39.8780488 140.121951,39.8780488 140.121951,40 C140.121951,39.8780488 140.121951,39.8780488 140.121951,40 L140.121951,40 C140.121951,39.8780488 140.121951,39.8780488 140.121951,40 C140.121951,39.8780488 140.121951,39.8780488 140.121951,40 L140.121951,40 C140.121951,40 140.121951,40 140.121951,40 C140.121951,40 140.121951,40 140.121951,40 L140.121951,40 Z" id="Path" fill="#FFFFFF"></path>
                                <polygon id="Path" fill="#FFFFFF" points="140.243902 40 140.243902 39.8780488 140.243902 39.8780488 140.243902 39.8780488 140.243902 39.8780488 140.243902 39.8780488 140.243902 40 140.243902 40 140.243902 39.8780488 140.243902 39.8780488 140.243902 40 140.243902 40 140.243902 39.8780488 140.243902 39.8780488"></polygon>
                                <path d="M140.243902,40 C140.243902,39.8780488 140.243902,39.8780488 140.243902,40 C140.243902,39.8780488 140.243902,39.8780488 140.243902,40 C140.243902,39.8780488 140.243902,39.8780488 140.243902,40 C140.243902,39.8780488 140.243902,39.8780488 140.243902,40 L140.243902,40 C140.243902,39.8780488 140.243902,39.8780488 140.243902,40 C140.243902,39.8780488 140.243902,39.8780488 140.243902,40 C140.243902,39.8780488 140.243902,39.8780488 140.243902,40 C140.243902,39.8780488 140.243902,39.8780488 140.243902,40 C140.243902,40 140.243902,40 140.243902,40 C140.243902,40 140.243902,40 140.243902,40 L140.243902,40 C140.243902,40 140.243902,40 140.243902,40 C140.243902,40 140.243902,40 140.243902,40 Z" id="Path" fill="#FFFFFF"></path>
                                <polygon id="Path" fill="#FFFFFF" points="140.365854 39.8780488 140.243902 39.8780488 140.243902 39.8780488 140.365854 39.8780488 140.365854 40 140.365854 40 140.365854 39.8780488"></polygon>
                                <polygon id="Path" fill="#FFFFFF" points="140.365854 40 140.365854 40 140.365854 39.8780488 140.365854 39.8780488 140.365854 39.8780488 140.365854 39.8780488 140.365854 39.8780488 140.365854 39.8780488 140.365854 39.8780488 140.365854 39.8780488 140.365854 40"></polygon>
                                <path d="M48.0487805,12.9268293 C48.0487805,10.7317073 49.6341463,9.3902439 51.5853659,9.3902439 C52.9268293,9.3902439 53.7804878,10 54.3902439,10.8536585 L53.4146341,11.4634146 C53.0487805,10.9756098 52.4390244,10.6097561 51.5853659,10.6097561 C50.2439024,10.6097561 49.2682927,11.5853659 49.2682927,13.0487805 C49.2682927,14.5121951 50.2439024,15.4878049 51.5853659,15.4878049 C52.3170732,15.4878049 52.9268293,15.1219512 53.1707317,14.8780488 L53.1707317,13.7804878 L51.2195122,13.7804878 L51.2195122,12.6829268 L54.5121951,12.6829268 L54.5121951,15.2439024 C53.902439,15.9756098 52.9268293,16.4634146 51.7073171,16.4634146 C49.6341463,16.4634146 48.0487805,15 48.0487805,12.9268293 Z" id="Path" fill="#FFFFFF" fill-rule="nonzero"></path>
                                <polygon id="Path" fill="#FFFFFF" fill-rule="nonzero" points="55.9756098 16.3414634 55.9756098 9.51219512 60.6097561 9.51219512 60.6097561 10.6097561 57.0731707 10.6097561 57.0731707 12.3170732 60.4878049 12.3170732 60.4878049 13.4146341 57.0731707 13.4146341 57.0731707 15.3658537 60.6097561 15.3658537 60.6097561 16.4634146"></polygon>
                                <polygon id="Path" fill="#FFFFFF" fill-rule="nonzero" points="64.0243902 16.3414634 64.0243902 10.6097561 61.9512195 10.6097561 61.9512195 9.51219512 67.3170732 9.51219512 67.3170732 10.6097561 65.2439024 10.6097561 65.2439024 16.3414634"></polygon>
                                <path d="M71.4634146,16.3414634 L71.4634146,9.51219512 L72.6829268,9.51219512 L72.6829268,16.3414634 C72.6829268,16.3414634 71.4634146,16.3414634 71.4634146,16.3414634 Z" id="Path" fill="#FFFFFF" fill-rule="nonzero"></path>
                                <polygon id="Path" fill="#FFFFFF" fill-rule="nonzero" points="75.9756098 16.3414634 75.9756098 10.6097561 73.902439 10.6097561 73.902439 9.51219512 79.2682927 9.51219512 79.2682927 10.6097561 77.195122 10.6097561 77.195122 16.3414634"></polygon>
                                <path d="M83.1707317,12.9268293 C83.1707317,10.8536585 84.6341463,9.3902439 86.7073171,9.3902439 C88.7804878,9.3902439 90.2439024,10.8536585 90.2439024,12.9268293 C90.2439024,15 88.7804878,16.4634146 86.7073171,16.4634146 C84.6341463,16.4634146 83.1707317,14.8780488 83.1707317,12.9268293 Z M88.902439,12.9268293 C88.902439,11.4634146 88.0487805,10.4878049 86.5853659,10.4878049 C85.2439024,10.4878049 84.2682927,11.5853659 84.2682927,12.9268293 C84.2682927,14.3902439 85.1219512,15.3658537 86.5853659,15.3658537 C88.0487805,15.3658537 88.902439,14.2682927 88.902439,12.9268293 Z" id="Shape" fill="#FFFFFF" fill-rule="nonzero"></path>
                                <polygon id="Path" fill="#FFFFFF" fill-rule="nonzero" points="96.3414634 16.3414634 92.804878 11.4634146 92.804878 16.3414634 91.5853659 16.3414634 91.5853659 9.51219512 92.804878 9.51219512 96.3414634 14.2682927 96.3414634 9.51219512 97.5609756 9.51219512 97.5609756 16.3414634"></polygon>
                            </g>
                        </g>
                    </g>
                </g>
            </g>
        </g>
    </g>
</svg>