<?xml version="1.0" encoding="UTF-8"?>
<svg width="161px" height="50px" viewBox="0 0 161 50" version="1.1" xmlns="http://www.w3.org/2000/svg" xmlns:xlink="http://www.w3.org/1999/xlink">
    <!-- Generator: Sketch 61.2 (89653) - https://sketch.com -->
    <title>elem / button / get on app store@2x</title>
    <desc>Created with Sketch.</desc>
    <g id="Done" stroke="none" stroke-width="1" fill="none" fill-rule="evenodd">
        <g id="Monetee-employee" transform="translate(-216.000000, -524.000000)">
            <g id="Group-20" transform="translate(215.000000, -396.000000)">
                <g id="Group-16" transform="translate(0.000000, 674.000000)">
                    <g id="Group-13" transform="translate(1.000000, 246.000000)">
                        <g id="elem-/-button-/-get-on-app-store">
                            <g id="app-store-badge">
                                <path d="M155.25,50 L5.25,50 C2.5,50 0.25,47.75 0.25,45 L0.25,5 C0.25,2.25 2.5,0 5.25,0 L155.25,0 C158,0 160.25,2.25 160.25,5 L160.25,45 C160.25,47.75 158,50 155.25,50 Z" id="Path" fill="#000000" fill-rule="nonzero"></path>
                                <path d="M34,24.75 C34,20.875 37.25,19 37.375,18.875 C35.5,16.25 32.75,15.875 31.75,15.75 C29.375,15.5 27,17.125 25.875,17.125 C24.625,17.125 22.75,15.75 20.75,15.75 C18.125,15.75 15.75,17.25 14.375,19.625 C11.625,24.375 13.625,31.375 16.25,35.25 C17.625,37.125 19.125,39.25 21.125,39.125 C23.125,39 23.875,37.875 26.25,37.875 C28.625,37.875 29.25,39.125 31.375,39.125 C33.5,39.125 34.875,37.25 36.125,35.375 C37.625,33.25 38.25,31.125 38.25,31 C38.125,30.875 34,29.375 34,24.75 Z" id="Path" fill="#FFFFFF" fill-rule="nonzero"></path>
                                <path d="M30.125,13.25 C31.125,11.875 31.875,10.125 31.75,8.25 C30.25,8.375 28.25,9.25 27.25,10.625 C26.25,11.75 25.375,13.625 25.625,15.375 C27.25,15.5 29,14.5 30.125,13.25 Z" id="Path" fill="#FFFFFF" fill-rule="nonzero"></path>
                                <path d="M62.5,38.875 L59.75,38.875 L58.25,34.125 L53,34.125 L51.625,38.875 L49,38.875 L54.25,22.75 L57.5,22.75 L62.5,38.875 Z M57.75,32.125 L56.375,27.875 C56.25,27.5 56,26.375 55.5,24.875 L55.5,24.875 C55.375,25.5 55.125,26.625 54.75,27.875 L53.375,32.125 L57.75,32.125 Z" id="Shape" fill="#FFFFFF" fill-rule="nonzero"></path>
                                <path d="M75.875,33 C75.875,35 75.375,36.5 74.25,37.75 C73.25,38.75 72.125,39.25 70.625,39.25 C69.125,39.25 68,38.75 67.375,37.625 L67.375,37.625 L67.375,43.75 L64.75,43.75 L64.75,31.25 C64.75,30 64.75,28.75 64.625,27.375 L66.875,27.375 L67,29.25 L67,29.25 C67.875,27.875 69.125,27.125 70.875,27.125 C72.25,27.125 73.375,27.625 74.25,28.75 C75.375,29.75 75.875,31.125 75.875,33 Z M73.25,33 C73.25,31.875 73,30.875 72.5,30.25 C72,29.5 71.25,29.125 70.25,29.125 C69.625,29.125 69,29.375 68.5,29.75 C68,30.125 67.625,30.75 67.5,31.375 C67.375,31.75 67.375,32 67.375,32.125 L67.375,34.125 C67.375,35 67.625,35.625 68.125,36.25 C68.625,36.875 69.375,37.125 70.125,37.125 C71.125,37.125 71.875,36.75 72.375,36 C73,35.25 73.25,34.25 73.25,33 Z" id="Shape" fill="#FFFFFF" fill-rule="nonzero"></path>
                                <path d="M89.25,33 C89.25,35 88.75,36.5 87.625,37.75 C86.625,38.75 85.5,39.25 84,39.25 C82.5,39.25 81.375,38.75 80.75,37.625 L80.75,37.625 L80.75,43.75 L78.125,43.75 L78.125,31.25 C78.125,30 78.125,28.75 78,27.375 L80.25,27.375 L80.375,29.25 L80.375,29.25 C81.25,27.875 82.5,27.125 84.25,27.125 C85.625,27.125 86.75,27.625 87.625,28.75 C88.75,29.75 89.25,31.125 89.25,33 Z M86.625,33 C86.625,31.875 86.375,30.875 85.875,30.25 C85.375,29.5 84.625,29.125 83.625,29.125 C83,29.125 82.375,29.375 81.875,29.75 C81.375,30.125 81,30.75 80.875,31.375 C80.75,31.75 80.75,32 80.75,32.125 L80.75,34.125 C80.75,35 81,35.625 81.5,36.25 C82,36.875 82.75,37.125 83.5,37.125 C84.5,37.125 85.25,36.75 85.75,36 C86.375,35.25 86.625,34.25 86.625,33 Z" id="Shape" fill="#FFFFFF" fill-rule="nonzero"></path>
                                <path d="M104.25,34.375 C104.25,35.75 103.75,36.875 102.875,37.75 C101.875,38.75 100.375,39.125 98.5,39.125 C96.75,39.125 95.375,38.75 94.375,38.125 L95,36 C96.125,36.625 97.375,37 98.75,37 C99.75,37 100.5,36.75 101,36.375 C101.5,35.875 101.75,35.375 101.75,34.625 C101.75,34 101.5,33.375 101.125,33 C100.625,32.5 99.875,32.125 98.875,31.75 C96,30.75 94.625,29.125 94.625,27.125 C94.625,25.75 95.125,24.75 96.125,23.875 C97.125,23 98.375,22.625 100.125,22.625 C101.625,22.625 102.75,22.875 103.75,23.375 L103.125,25.5 C102.25,25 101.25,24.75 100,24.75 C99.125,24.75 98.375,25 97.875,25.375 C97.5,25.75 97.25,26.25 97.25,26.875 C97.25,27.5 97.5,28 98,28.5 C98.375,28.875 99.25,29.25 100.375,29.75 C101.75,30.25 102.75,31 103.5,31.75 C103.875,32.375 104.25,33.25 104.25,34.375 Z" id="Path" fill="#FFFFFF" fill-rule="nonzero"></path>
                                <path d="M112.75,29.25 L109.875,29.25 L109.875,34.875 C109.875,36.25 110.375,37 111.375,37 C111.875,37 112.25,37 112.5,36.875 L112.625,38.875 C112.125,39.125 111.5,39.125 110.625,39.125 C109.625,39.125 108.75,38.875 108.25,38.25 C107.625,37.625 107.375,36.625 107.375,35.125 L107.375,29.25 L105.625,29.25 L105.625,27.25 L107.375,27.25 L107.375,25.125 L109.875,24.375 L109.875,27.25 L112.75,27.25 L112.75,29.25 Z" id="Path" fill="#FFFFFF" fill-rule="nonzero"></path>
                                <path d="M125.625,33 C125.625,34.75 125.125,36.25 124.125,37.375 C123,38.5 121.625,39.125 119.875,39.125 C118.125,39.125 116.75,38.5 115.75,37.375 C114.75,36.25 114.25,34.875 114.25,33.125 C114.25,31.375 114.75,29.875 115.875,28.75 C116.875,27.625 118.375,27 120.125,27 C121.875,27 123.25,27.625 124.25,28.75 C125.125,29.875 125.625,31.25 125.625,33 Z M122.875,33.125 C122.875,32 122.625,31.125 122.125,30.375 C121.625,29.5 120.75,29 119.75,29 C118.75,29 117.875,29.5 117.375,30.375 C116.875,31.125 116.625,32.125 116.625,33.125 C116.625,34.25 116.875,35.125 117.375,35.875 C117.875,36.75 118.75,37.25 119.75,37.25 C120.75,37.25 121.5,36.75 122.125,35.875 C122.625,35.125 122.875,34.125 122.875,33.125 Z" id="Shape" fill="#FFFFFF" fill-rule="nonzero"></path>
                                <path d="M134,29.5 C133.75,29.5 133.5,29.375 133.125,29.375 C132.25,29.375 131.5,29.75 131,30.375 C130.625,31 130.375,31.75 130.375,32.625 L130.375,38.75 L127.75,38.75 L127.75,30.75 C127.75,29.375 127.75,28.25 127.625,27.125 L129.875,27.125 L130,29.375 L130.125,29.375 C130.375,28.625 130.875,28 131.375,27.5 C132,27.125 132.625,26.875 133.25,26.875 C133.5,26.875 133.75,26.875 133.875,26.875 L133.875,29.5 L134,29.5 Z" id="Path" fill="#FFFFFF" fill-rule="nonzero"></path>
                                <path d="M145.5,32.5 C145.5,33 145.5,33.375 145.375,33.625 L137.625,33.625 C137.625,34.75 138,35.625 138.75,36.25 C139.375,36.75 140.25,37.125 141.25,37.125 C142.375,37.125 143.5,37 144.375,36.625 L144.75,38.375 C143.625,38.875 142.375,39.125 140.875,39.125 C139.125,39.125 137.625,38.625 136.625,37.5 C135.625,36.5 135.125,35 135.125,33.25 C135.125,31.5 135.625,30 136.5,28.875 C137.5,27.625 138.875,27 140.625,27 C142.25,27 143.625,27.625 144.375,28.875 C145.25,29.875 145.5,31.125 145.5,32.5 Z M143.125,31.875 C143.125,31.125 143,30.5 142.625,29.875 C142.125,29.125 141.5,28.75 140.625,28.75 C139.75,28.75 139.125,29.125 138.625,29.75 C138.25,30.25 138,31 137.875,31.75 L143.125,31.75 L143.125,31.875 Z" id="Shape" fill="#FFFFFF" fill-rule="nonzero"></path>
                                <path d="M57,12.875 C57,14.25 56.625,15.375 55.75,16.125 C55,16.75 53.875,17.125 52.375,17.125 C51.625,17.125 51,17.125 50.5,17 L50.5,9.25 C51.125,9.125 51.875,9.125 52.75,9.125 C54.125,9.125 55.125,9.375 55.875,10 C56.5,10.625 57,11.625 57,12.875 Z M55.625,12.875 C55.625,12 55.375,11.25 54.875,10.75 C54.375,10.25 53.625,10 52.75,10 C52.375,10 52,10 51.75,10.125 L51.75,16 C51.875,16 52.25,16 52.625,16 C53.625,16 54.375,15.75 54.875,15.25 C55.375,14.75 55.625,13.875 55.625,12.875 Z" id="Shape" fill="#FFFFFF" fill-rule="nonzero"></path>
                                <path d="M64,14.125 C64,15 63.75,15.75 63.25,16.25 C62.75,16.875 62,17.125 61.125,17.125 C60.25,17.125 59.625,16.875 59.125,16.25 C58.625,15.75 58.375,15 58.375,14.125 C58.375,13.25 58.625,12.5 59.125,12 C59.625,11.375 60.375,11.125 61.25,11.125 C62.125,11.125 62.75,11.375 63.25,12 C63.75,12.5 64,13.25 64,14.125 Z M62.75,14.125 C62.75,13.625 62.625,13.125 62.375,12.75 C62.125,12.25 61.75,12.125 61.25,12.125 C60.75,12.125 60.375,12.375 60.125,12.75 C59.875,13.125 59.75,13.625 59.75,14.125 C59.75,14.625 59.875,15.125 60.125,15.5 C60.375,16 60.75,16.125 61.25,16.125 C61.75,16.125 62.125,15.875 62.375,15.375 C62.625,15.125 62.75,14.625 62.75,14.125 Z" id="Shape" fill="#FFFFFF" fill-rule="nonzero"></path>
                                <path d="M73.625,11.25 L71.875,17 L70.75,17 L70,14.5 C69.75,13.875 69.625,13.25 69.5,12.625 L69.5,12.625 C69.375,13.25 69.25,13.875 69,14.5 L68.25,17 L67.125,17 L65.25,11.25 L66.5,11.25 L67.125,14 C67.25,14.625 67.375,15.25 67.5,15.875 L67.5,15.875 C67.625,15.375 67.75,14.75 68,14 L68.75,11.25 L69.75,11.25 L70.5,13.875 C70.75,14.5 70.875,15.125 71,15.75 L71,15.75 C71.125,15.125 71.25,14.5 71.375,13.875 L72.125,11.25 L73.625,11.25 Z" id="Path" fill="#FFFFFF" fill-rule="nonzero"></path>
                                <path d="M80.125,17 L78.875,17 L78.875,13.75 C78.875,12.75 78.5,12.25 77.75,12.25 C77.375,12.25 77.125,12.375 76.875,12.625 C76.625,12.875 76.5,13.25 76.5,13.625 L76.5,17 L75.25,17 L75.25,12.875 C75.25,12.375 75.25,11.875 75.25,11.25 L76.375,11.25 L76.375,12.125 L76.375,12.125 C76.5,11.875 76.75,11.625 77,11.375 C77.375,11.125 77.75,11 78.125,11 C78.625,11 79.125,11.125 79.5,11.5 C80,11.875 80.125,12.5 80.125,13.375 L80.125,17 Z" id="Path" fill="#FFFFFF" fill-rule="nonzero"></path>
                                <polygon id="Path" fill="#FFFFFF" fill-rule="nonzero" points="83.625 17 82.375 17 82.375 8.625 83.625 8.625"></polygon>
                                <path d="M91.125,14.125 C91.125,15 90.875,15.75 90.375,16.25 C89.875,16.875 89.125,17.125 88.25,17.125 C87.375,17.125 86.75,16.875 86.25,16.25 C85.75,15.75 85.5,15 85.5,14.125 C85.5,13.25 85.75,12.5 86.25,12 C86.75,11.5 87.5,11.125 88.375,11.125 C89.25,11.125 89.875,11.375 90.375,12 C90.875,12.5 91.125,13.25 91.125,14.125 Z M89.875,14.125 C89.875,13.625 89.75,13.125 89.5,12.75 C89.25,12.25 88.875,12.125 88.375,12.125 C87.875,12.125 87.5,12.375 87.25,12.75 C87,13.125 86.875,13.625 86.875,14.125 C86.875,14.625 87,15.125 87.25,15.5 C87.5,16 87.875,16.125 88.375,16.125 C88.875,16.125 89.25,15.875 89.5,15.375 C89.75,15.125 89.875,14.625 89.875,14.125 Z" id="Shape" fill="#FFFFFF" fill-rule="nonzero"></path>
                                <path d="M97.25,17 L96.125,17 L96,16.375 L96,16.375 C95.625,16.875 95,17.125 94.375,17.125 C93.875,17.125 93.375,17 93.125,16.625 C92.875,16.25 92.625,15.875 92.625,15.5 C92.625,14.75 92.875,14.25 93.5,13.875 C94.125,13.5 94.875,13.375 96,13.375 L96,13.25 C96,12.5 95.625,12.125 94.875,12.125 C94.25,12.125 93.875,12.25 93.375,12.5 L93.125,11.625 C93.625,11.25 94.25,11.125 95.125,11.125 C96.625,11.125 97.375,11.875 97.375,13.5 L97.375,15.625 C97.25,16.25 97.25,16.625 97.25,17 Z M96,15 L96,14.125 C94.625,14.125 93.875,14.5 93.875,15.25 C93.875,15.5 94,15.75 94.125,15.875 C94.25,16 94.5,16.125 94.75,16.125 C95,16.125 95.25,16 95.5,15.875 C95.75,15.75 95.875,15.5 96,15.25 C96,15.25 96,15.125 96,15 Z" id="Shape" fill="#FFFFFF" fill-rule="nonzero"></path>
                                <path d="M104.5,17 L103.375,17 L103.375,16.125 L103.375,16.125 C103,16.875 102.375,17.125 101.5,17.125 C100.75,17.125 100.25,16.875 99.75,16.375 C99.25,15.875 99.125,15.125 99.125,14.25 C99.125,13.375 99.375,12.625 99.875,12 C100.375,11.5 101,11.25 101.625,11.25 C102.375,11.25 102.875,11.5 103.25,12 L103.25,12 L103.25,8.75 L104.5,8.75 L104.5,15.5 C104.5,16 104.5,16.5 104.5,17 Z M103.25,14.625 L103.25,13.625 C103.25,13.5 103.25,13.375 103.25,13.25 C103.125,13 103,12.75 102.75,12.5 C102.5,12.25 102.25,12.25 101.875,12.25 C101.375,12.25 101,12.5 100.75,12.875 C100.5,13.25 100.375,13.75 100.375,14.375 C100.375,15 100.5,15.375 100.75,15.75 C101,16.125 101.375,16.375 101.875,16.375 C102.25,16.375 102.625,16.25 102.875,15.875 C103.125,15.375 103.25,15 103.25,14.625 Z" id="Shape" fill="#FFFFFF" fill-rule="nonzero"></path>
                                <path d="M115.375,14.125 C115.375,15 115.125,15.75 114.625,16.25 C114.125,16.875 113.375,17.125 112.5,17.125 C111.625,17.125 111,16.875 110.5,16.25 C110,15.75 109.75,15 109.75,14.125 C109.75,13.25 110,12.5 110.5,12 C111,11.375 111.75,11.125 112.625,11.125 C113.5,11.125 114.125,11.375 114.625,12 C115.125,12.5 115.375,13.25 115.375,14.125 Z M114,14.125 C114,13.625 113.875,13.125 113.625,12.75 C113.375,12.25 113,12.125 112.5,12.125 C112,12.125 111.625,12.375 111.375,12.75 C111.125,13.125 111,13.625 111,14.125 C111,14.625 111.125,15.125 111.375,15.5 C111.625,16 112,16.125 112.5,16.125 C113,16.125 113.375,15.875 113.625,15.375 C113.875,15.125 114,14.625 114,14.125 Z" id="Shape" fill="#FFFFFF" fill-rule="nonzero"></path>
                                <path d="M122.25,17 L121,17 L121,13.75 C121,12.75 120.625,12.25 119.875,12.25 C119.5,12.25 119.25,12.375 119,12.625 C118.75,12.875 118.625,13.25 118.625,13.625 L118.625,17 L117.375,17 L117.375,12.875 C117.375,12.375 117.375,11.875 117.375,11.25 L118.5,11.25 L118.5,12.125 L118.5,12.125 C118.625,11.875 118.875,11.625 119.125,11.375 C119.5,11.125 119.875,11 120.25,11 C120.75,11 121.25,11.125 121.625,11.5 C122.125,11.875 122.25,12.5 122.25,13.375 L122.25,17 Z" id="Path" fill="#FFFFFF" fill-rule="nonzero"></path>
                                <path d="M130.75,12.25 L129.375,12.25 L129.375,15 C129.375,15.75 129.625,16 130.125,16 C130.375,16 130.5,16 130.75,16 L130.75,17 C130.5,17.125 130.125,17.125 129.75,17.125 C129.25,17.125 128.875,17 128.625,16.625 C128.375,16.375 128.25,15.75 128.25,15.125 L128.25,12.25 L127.375,12.25 L127.375,11.25 L128.25,11.25 L128.25,10.25 L129.5,9.875 L129.5,11.25 L130.875,11.25 L130.875,12.25 L130.75,12.25 Z" id="Path" fill="#FFFFFF" fill-rule="nonzero"></path>
                                <path d="M137.5,17 L136.25,17 L136.25,13.75 C136.25,12.75 135.875,12.25 135.125,12.25 C134.5,12.25 134.125,12.5 133.875,13.125 C133.875,13.25 133.875,13.375 133.875,13.625 L133.875,17 L132.625,17 L132.625,8.625 L133.875,8.625 L133.875,12.125 L133.875,12.125 C134.25,11.5 134.875,11.125 135.625,11.125 C136.125,11.125 136.625,11.25 136.875,11.625 C137.25,12 137.5,12.75 137.5,13.5 L137.5,17 Z" id="Path" fill="#FFFFFF" fill-rule="nonzero"></path>
                                <path d="M144.375,13.875 C144.375,14.125 144.375,14.25 144.375,14.5 L140.625,14.5 C140.625,15.125 140.875,15.5 141.125,15.75 C141.5,16 141.875,16.125 142.375,16.125 C143,16.125 143.5,16 143.875,15.875 L144.125,16.75 C143.625,17 143,17.125 142.25,17.125 C141.375,17.125 140.625,16.875 140.125,16.375 C139.625,15.875 139.375,15.125 139.375,14.25 C139.375,13.375 139.625,12.625 140.125,12.125 C140.625,11.5 141.25,11.25 142.125,11.25 C143,11.25 143.625,11.5 144,12.125 C144.25,12.5 144.375,13.125 144.375,13.875 Z M143.25,13.5 C143.25,13.125 143.125,12.75 143,12.5 C142.75,12.125 142.5,12 142,12 C141.625,12 141.25,12.125 141,12.5 C140.75,12.75 140.625,13.125 140.625,13.5 L143.25,13.5 Z" id="Shape" fill="#FFFFFF" fill-rule="nonzero"></path>
                            </g>
                        </g>
                    </g>
                </g>
            </g>
        </g>
    </g>
</svg>